<?xml version="1.0" encoding="UTF-8" standalone="no"?>
<?xml-stylesheet type="text/css" href="../css/plantas.css"?><svg
   xmlns:dc="http://purl.org/dc/elements/1.1/"
   xmlns:cc="http://creativecommons.org/ns#"
   xmlns:rdf="http://www.w3.org/1999/02/22-rdf-syntax-ns#"
   xmlns:svg="http://www.w3.org/2000/svg"
   xmlns="http://www.w3.org/2000/svg"
   xmlns:sodipodi="http://sodipodi.sourceforge.net/DTD/sodipodi-0.dtd"
   xmlns:inkscape="http://www.inkscape.org/namespaces/inkscape"
   id="gardenia"
   version="1.1"
   viewBox="0 0 416.95142 644.53815"
   height="644.53815mm"
   width="416.95142mm"
   sodipodi:docname="cactus.svg"
   inkscape:version="0.92.3 (2405546, 2018-03-11)">
  <defs
     id="defs4503" />
  <sodipodi:namedview
     pagecolor="#ffffff"
     bordercolor="#666666"
     borderopacity="1"
     objecttolerance="1"
     gridtolerance="1"
     guidetolerance="1"
     inkscape:pageopacity="0"
     inkscape:pageshadow="2"
     inkscape:window-width="1920"
     inkscape:window-height="1057"
     id="namedview119"
     showgrid="false"
     inkscape:zoom="0.32433302"
     inkscape:cx="-1199.2507"
     inkscape:cy="841.97193"
     inkscape:window-x="-8"
     inkscape:window-y="-8"
     inkscape:window-maximized="1"
     inkscape:current-layer="gardenia" />
  <metadata
     id="metadata2128">
    <rdf:RDF>
      <cc:Work
         rdf:about="">
        <dc:format>image/svg+xml</dc:format>
        <dc:type
           rdf:resource="http://purl.org/dc/dcmitype/StillImage" />
        <dc:title></dc:title>
      </cc:Work>
    </rdf:RDF>
  </metadata>
  <g
     transform="matrix(1.5030007,0,0,1.6004411,573.33896,497.51729)"
     id="g2627">
    <g
       id="g1799">
      <path
         inkscape:connector-curvature="0"
         style="opacity:1;vector-effect:none;fill:#ffffff;fill-opacity:1;stroke:#000000;stroke-width:0.50800002;stroke-linecap:round;stroke-linejoin:round;stroke-miterlimit:4;stroke-dasharray:none;stroke-dashoffset:0;stroke-opacity:1;paint-order:markers fill stroke"
         d="m -361.91647,-155.94929 3.57962,4.48448 1.33997,1.67845 0.98547,-0.73122 4.60851,-3.41839 0.65629,5.69991 0.24391,2.11666 0.83664,-0.19327 5.59036,-1.29294 -1.67535,5.48752 -0.97824,3.2029 2.00867,0.65164 5.45754,1.77096 -4.26227,3.84111 -1.45107,1.30793 1.64486,0.47077 5.51646,1.57871 -4.12533,3.98787 -2.15956,2.08773 2.07222,1.01803 5.14956,2.53059 -4.76663,3.19464 -1.62316,1.08727 1.56166,0.70073 5.23482,2.34921 -4.65191,3.35897 -1.11673,0.80616 2.05208,1.00872 5.14955,2.53059 -4.76663,3.19413 -1.62316,1.08778 1.56166,0.700743 5.23483,2.34869 -4.65192,3.35897 -1.1343,0.81958 1.86139,0.31162 5.65908,0.94826 -3.65042,4.4266 -1.24333,1.5074 1.69705,0.22376 5.68854,0.74931 -3.49332,4.55166 -1.5875,2.068607 0.71417,-0.47749 4.76921,-3.189987 0.37827,5.725232 0.0522,0.79375 0.39791,-0.541052 3.39928,-4.62246 2.30373,5.254978 0.4284,0.977202 1.20096,-1.632974 3.39928,-4.622976 2.30373,5.254978 0.76378,1.74253 0.72657,-2.747637 1.46606,-5.547461 3.90622,3.879864 0.51677,-2.626194 1.10846,-5.62963 3.82664,3.34295 0.0491,-0.24805 1.10845,-5.62963 3.74913,3.27525 0.26045,-0.69143 2.02106,-5.37022 3.64009,4.43539 0.14986,0.18242 0.33486,-0.96635 1.88051,-5.42086 3.75429,4.33876 0.62116,0.71778 0.077,-1.05885 0.41547,-5.72265 4.74855,3.221 4.74803,3.22099 -5.16351,2.50166 -2.08152,1.00872 0.38964,0.4501 -2.1854,0.41961 -1.28623,0.62322 0.0279,-0.38137 -2.19108,0.42064 -1.14153,0.21911 0.54209,0.66094 -5.33611,0.88161 0.66817,0.58394 -5.42964,1.85518 -0.23926,0.0817 0.68419,0.597897 -5.42964,1.855184 -2.73937,0.935861 2.13683,2.122868 -5.53713,1.503267 -3.7791,1.026295 0.52193,1.190625 -5.70301,-0.632521 -2.01486,-0.223242 0.3855,0.879533 -5.70301,-0.632518 -2.40812,-0.266652 0.032,0.484208 -1.25987,-0.620633 -2.06706,-0.228928 0.42581,-0.579292 -2.24586,-1.106392 -5.14749,-2.535245 1.75804,-1.175639 -1.80403,-4.354776 -2.19521,-5.30097 0.31264,0.0413 -0.73639,-1.97094 -1.0144,-2.71456 -0.71417,0.51573 -0.58343,-5.70818 -0.58343,-5.708173 0.28784,0.12919 -0.14056,-2.0991 -0.14315,-2.13889 -0.67696,0.48886 -0.58342,-5.70766 -0.58343,-5.70818 0.28784,0.12919 -0.14056,-2.09961 -0.38292,-5.72472 0.29507,0.1447 -0.57464,-2.29857 -1.39113,-5.56659 0.30334,0.0868 -0.43822,-2.05775 -1.07022,-5.02192 -1.28829,-1.38079 -3.53002,-3.78272 -0.48317,-0.20929 -3.54707,-1.53685 -1.52911,0.23099 -2.62723,0.39739 -2.17558,1.39992 -1.01802,0.65525 -2.08824,3.90778 -1.44075,2.69647 1.60042,-0.50849 -1.2299,5.60482 -0.46922,2.13734 0.21704,5.35781 0.23151,5.73299 -0.74465,-0.39068 -0.36742,2.64635 -0.30076,2.16679 0.63407,5.32578 0.67851,5.69732 -1.16117,-0.49764 -0.14883,3.21428 -0.10128,2.184363 1.11879,5.24567 1.19683,5.61154 -0.80047,-0.25941 0.0847,2.67064 0.0698,2.18539 1.52446,5.143358 1.63039,5.500958 -1.2914,-0.309542 0.7674,2.563667 0.62683,2.094963 2.79157,4.580081 2.98586,4.899961 -0.84129,0.02016 0.96376,2.49184 0.78859,2.04018 3.13986,4.34806 1.10897,1.53582 0.15658,-0.54674 3.98529,4.12791 1.5198,1.57459 4.58112,2.78691 4.90202,2.98224 -0.22996,0.12558 2.69028,1.06866 2.03295,0.80771 5.32319,0.65164 2.6355,0.32246 -0.18087,-1.23507 5.33249,2.11874 2.03347,0.8077 5.32267,0.65112 3.55431,0.43512 -0.18449,-0.43408 5.69526,0.69711 5.69526,0.6966 -3.45095,4.5837 -3.45147,4.5837 -2.24379,-5.2803 -1.21595,-2.86184 -2.15387,2.8608 -3.45147,4.5837 -2.24379,-5.28081 -0.88935,-2.09289 -2.18437,1.72754 -4.50101,3.55844 -0.83148,-5.67718 -0.10645,-0.72605 -0.93534,1.2423 -3.45147,4.5837 -2.24379,-5.28081 -0.88935,-2.0929 -2.18488,1.72703 -4.5005,3.55895 -0.83148,-5.67717 -0.49299,-3.36724 -2.50011,1.36788 -5.0338,2.75384 0.13178,-5.73609 0.0522,-2.27324 -2.70165,0.67334 -5.56762,1.387 1.58234,-5.51491 0.43666,-1.52187 -2.4691,0.25218 -5.70766,0.58291 2.3487,-5.23483 0.93069,-2.07429 -2.75126,-0.42891 -5.6689,-0.88367 3.59978,-4.46794 1.22938,-1.526003 -1.41852,0.03359 -5.7366,0.135908 2.75074,-5.035351 1.08986,-1.995745 -2.70992,-0.642336 -5.5826,-1.323436 3.93723,-4.173386 1.8433,-1.953371 -1.31569,-0.315744 -5.5795,-1.337902 3.94911,-4.16305 1.56477,-1.64951 -2.45464,-1.31517 -5.05756,-2.70991 4.87515,-3.02514 1.66501,-1.03301 -1.35031,-0.4377 -5.45806,-1.7694 4.26176,-3.84266 1.68878,-1.52239 -2.34456,-1.50275 -4.83122,-3.095423 5.09684,-2.63601 2.3828,-1.23197 -1.51567,-0.65009 -5.27358,-2.26136 4.59507,-3.43597 1.82107,-1.36219 -2.19728,-1.71049 -4.52737,-3.52485 5.31647,-2.15852 1.81539,-0.73691 -1.25677,-0.65939 -5.08082,-2.66599 4.84931,-3.06751 1.92133,-1.21543 -2.05672,-1.87688 -4.23901,-3.86695 5.46891,-1.73737 1.58492,-0.50384 -2.01125,-3.2334 -3.0303,-4.87205 5.73504,-0.1881 1.14516,-0.0377 -0.11008,-2.27893 -0.27698,-5.73092 5.10149,2.62568 1.06867,0.54984 0.4315,-1.10071 z"
         id="path1117-3-7-6-0-47-2-7-4-9-0-1-7-6-0-2-44-5-0" />
      <g
         id="g1064">
        <path
           inkscape:connector-curvature="0"
           transform="scale(0.26458333)"
           id="path863-9"
           d="m -1153.8613,-107.91992 c -1.0452,-7.77392 -1.8823,-16.58638 -2.5039,-26.08594 -0.6217,-9.49956 -1.0271,-19.6876 -1.211,-30.21289 -0.1839,-10.52529 -0.1469,-21.38715 0.1211,-32.23828 0.2681,-10.85113 0.7658,-21.6909 1.5,-32.16797 0.7342,-10.47707 1.7054,-20.59103 2.9199,-29.99414 0.6073,-4.70155 1.2759,-9.22551 2.0059,-13.52734 0.7301,-4.30184 1.5224,-8.38265 2.377,-12.19727 0.8545,-3.81462 1.771,-7.36359 2.7519,-10.60352 0.9809,-3.23992 2.0258,-6.1703 3.1348,-8.74804 1.109,-2.57775 2.2826,-4.80279 3.5215,-6.63086 0.6194,-0.91404 1.2559,-1.72924 1.9082,-2.43945 0.5717,-0.62261 1.1606,-1.12981 1.7578,-1.5879 -14.017,7.66978 -29.9189,19.8379 -49.25,40.1836 l -74.5176,-6.22656 c -29.3464,-22.29449 -32.6159,-158.09917 -48.9238,-237.14844 -19.5199,-68.50224 -96.8651,-55.00838 -98.4785,4.5332 -17.3567,221.33831 -1.8372,415.572539 252.8867,405.0918 z"
           style="fill:#ffffff;fill-opacity:1;stroke:#000000;stroke-width:2.26771665;stroke-linecap:round;stroke-linejoin:round;stroke-miterlimit:4;stroke-dasharray:none;stroke-opacity:1" />
        <g
           style="stroke-width:0.60000002;stroke-linecap:round;stroke-linejoin:round;stroke-miterlimit:4;stroke-dasharray:none"
           transform="matrix(-1,0,0,1,-485.19323,0.132342)"
           id="g980">
          <path
             sodipodi:nodetypes="cccccc"
             inkscape:connector-curvature="0"
             id="path972"
             d="m -181.14946,-75.004177 c 3.04734,2.853941 5.37242,5.169693 7.47467,8.190104 1.83278,1.625522 5.09956,2.26826 7.73407,2.320635 7.68053,-0.290124 16.61826,-0.146268 19.99911,-4.311401 9.19807,-12.419251 10.43779,-44.610871 12.32266,-62.729151 -0.0635,-6.15938 0.87908,-12.02211 4.72067,-17.10295"
             style="fill:none;stroke:#000000;stroke-width:0.60000002;stroke-linecap:round;stroke-linejoin:round;stroke-miterlimit:4;stroke-dasharray:none;stroke-opacity:1" />
          <path
             sodipodi:nodetypes="ccsc"
             inkscape:connector-curvature="0"
             id="path974"
             d="m -178.89344,-39.662146 c 2.64906,0.910093 5.41446,0.973946 8.31547,1.13393 56.99779,4.957873 54.71961,-59.853554 53.24005,-98.363814 -0.23973,-6.23996 -1.98452,-10.14248 -2.78764,-11.00957"
             style="fill:none;stroke:#000000;stroke-width:0.60000002;stroke-linecap:round;stroke-linejoin:round;stroke-miterlimit:4;stroke-dasharray:none;stroke-opacity:1" />
          <path
             style="fill:none;stroke:#000000;stroke-width:0.60000002;stroke-linecap:round;stroke-linejoin:round;stroke-miterlimit:4;stroke-dasharray:none;stroke-opacity:1"
             d="m -180.31007,-69.931431 c 2.66859,2.438026 4.08581,3.323969 6.0521,6.149035 7.27669,3.857474 24.6164,2.897091 28.77262,-1.707284 10.52782,-10.092185 12.95868,-47.19187 14.21254,-66.41442 -0.0635,-6.15938 0.87908,-12.02211 4.72067,-17.10295"
             id="path976"
             inkscape:connector-curvature="0"
             sodipodi:nodetypes="ccccc" />
          <path
             style="fill:none;stroke:#000000;stroke-width:0.60000002;stroke-linecap:round;stroke-linejoin:round;stroke-miterlimit:4;stroke-dasharray:none;stroke-opacity:1"
             d="m -178.75593,-41.970551 c 1.9989,0.508914 4.00221,0.749107 6.2098,0.87085 56.99779,4.957873 54.98688,-57.849033 53.50732,-96.359289 -0.23973,-6.23996 -2.01995,-10.23697 -2.82307,-11.10406"
             id="path978"
             inkscape:connector-curvature="0"
             sodipodi:nodetypes="ccsc" />
        </g>
      </g>
    </g>
    <g
       id="g1789">
      <path
         inkscape:connector-curvature="0"
         style="opacity:1;vector-effect:none;fill:#ffffff;fill-opacity:1;stroke:#000000;stroke-width:1.92000008;stroke-linecap:round;stroke-linejoin:round;stroke-miterlimit:4;stroke-dasharray:none;stroke-dashoffset:0;stroke-opacity:1;paint-order:markers fill stroke"
         d="m -467.13672,-585.46094 -13.5293,16.94922 -5.06445,6.34375 -3.72461,-2.76367 -17.41797,-12.91992 -2.48047,21.54297 -0.92187,8 -3.16211,-0.73047 -21.12891,-4.88672 6.33203,20.74023 3.69727,12.10547 -7.5918,2.46289 -20.62695,6.69336 16.10938,14.51758 5.48437,4.94336 -6.2168,1.7793 -20.84961,5.96679 15.5918,15.07227 8.16211,7.89062 -7.83203,3.84766 -19.46289,9.56445 18.01562,12.07422 6.13477,4.10938 -5.90234,2.64843 -19.78516,8.87891 17.58203,12.69531 4.2207,3.04688 -7.75586,3.8125 -19.46289,9.56445 18.01563,12.07227 6.13476,4.11133 -5.90234,2.64843 -19.78516,8.87696 17.58204,12.69531 4.28711,3.09765 -7.03516,1.17774 -21.38867,3.58398 13.79687,16.73047 4.69922,5.69727 -6.41406,0.8457 -21.5,2.83203 13.20312,17.20313 6,7.81836 -2.69922,-1.80469 -18.02539,-12.05664 -1.42968,21.63867 -0.19727,3 -1.50391,-2.04492 -12.84765,-17.47071 -8.70703,19.86133 -1.61914,3.69336 -4.53907,-6.17187 -12.84765,-17.47266 -8.70703,19.86133 -2.88672,6.58594 -2.7461,-10.38477 -5.54101,-20.9668 -14.76367,14.66407 -1.95313,-9.92578 -4.18945,-21.27735 -14.46289,12.63477 -0.18555,-0.9375 -4.18945,-21.27735 -14.16992,12.37891 -0.98438,-2.61328 -7.63867,-20.29688 -13.75781,16.76368 -0.56641,0.68945 -1.26562,-3.65234 -7.10743,-20.48829 -14.18945,16.39844 -2.34766,2.71289 -0.29101,-4.00195 -1.57031,-21.62891 -17.94727,12.17383 -17.94531,12.17383 19.51562,9.45508 7.86719,3.8125 -1.47266,1.70117 8.25977,1.58594 4.86133,2.35547 -0.10547,-1.44141 8.28125,1.58984 4.31445,0.82813 -2.04883,2.49804 20.16797,3.33204 -2.52539,2.20703 20.52149,7.01172 0.90429,0.30859 -2.58593,2.25976 20.52148,7.01172 10.35352,3.53711 -8.07618,8.02344 20.92774,5.68164 14.2832,3.87891 -1.97266,4.5 21.55469,-2.39063 7.61524,-0.84375 -1.45703,3.32422 21.55468,-2.39062 9.10157,-1.00782 -0.1211,1.83008 4.76172,-2.3457 7.8125,-0.86524 -1.60937,-2.18945 8.48828,-4.18164 19.45508,-9.58203 -6.64454,-4.44336 6.81836,-16.45898 8.29688,-20.03516 -1.18164,0.15625 2.7832,-7.44922 3.83398,-10.25977 2.69922,1.94922 2.20508,-21.57422 2.20508,-21.57421 -1.08789,0.48828 0.53125,-7.9336 0.54102,-8.08398 2.55859,1.84766 2.20508,-21.57227 2.20507,-21.57422 -1.08789,0.48828 0.53125,-7.93554 1.44727,-21.63672 -1.11523,0.54687 2.17187,-8.6875 5.25781,-21.03906 -1.14648,0.32812 1.65625,-7.77734 4.04492,-18.98047 4.86914,-5.21875 13.3418,-14.29687 1.82617,-0.79102 13.40625,-5.80859 5.7793,0.87304 9.92968,1.50196 8.22266,5.29101 3.84766,2.47657 7.89257,14.76953 5.44532,10.1914 -6.04883,-1.92187 4.64844,21.18359 1.77343,8.07813 -0.82031,20.25 -0.875,21.66797 2.81445,-1.47657 1.38868,10.00196 1.13672,8.18945 -2.39649,20.12891 -2.56445,21.5332 4.38867,-1.88086 0.5625,12.14844 0.38281,8.25586 -4.22851,19.82617 -4.52344,21.20898 3.02539,-0.98047 -0.32031,10.09375 -0.26367,8.25977 -5.76172,19.43945 -6.16211,20.79102 4.88086,-1.16992 -2.90039,9.68945 -2.36914,7.91797 -10.55079,17.31054 -11.28515,18.51954 3.17969,0.0762 -3.64258,9.41797 -2.98047,7.71093 -11.86719,16.4336 -4.19141,5.80469 -0.59179,-2.06641 -15.0625,15.60156 -5.74414,5.95117 -17.31446,10.53321 -18.52734,11.27148 0.86914,0.47461 -10.16797,4.03906 -7.68359,3.05274 -20.11914,2.46289 -9.96094,1.21875 0.68359,-4.66797 -20.15429,8.00781 -7.68555,3.05274 -20.11719,2.46093 -13.43359,1.64453 0.69726,-1.64062 -21.52539,2.63477 -21.52539,2.63281 13.04297,17.324217 13.04492,17.324219 8.48047,-19.957032 4.59571,-10.816404 8.14062,10.812498 13.04492,17.324219 8.48047,-19.958985 3.36133,-7.910152 8.25586,6.52929 17.01172,13.449222 3.14258,-21.457032 0.40234,-2.74414 3.53516,4.69531 13.04492,17.324221 8.48047,-19.958981 3.36132,-7.91016 8.25782,6.52734 17.00976,13.451176 3.14258,-21.457026 1.86328,-12.72657 9.44922,5.16992 19.02539,10.40821 -0.49805,-21.67969 -0.19726,-8.5918 10.21094,2.54493 21.04297,5.24218 -5.98047,-20.84375 -1.65039,-5.75195 9.33203,0.95312 21.57226,2.20313 -8.87695,-19.78516 -3.51758,-7.83984 10.39844,-1.62109 21.42578,-3.33985 -13.60547,-16.88672 -4.64648,-5.76757 5.36133,0.12695 21.68164,0.51367 -10.39649,-19.03125 -4.11914,-7.54297 10.24219,-2.42773 21.09961,-5.00196 -14.88086,-15.77343 -6.9668,-7.38282 4.97266,-1.19336 21.08789,-5.05664 -14.92578,-15.73437 -5.91407,-6.23438 9.27735,-4.9707 19.11523,-10.24219 -18.42578,-11.43359 -6.29297,-3.9043 5.10352,-1.65429 20.62891,-6.6875 -16.10743,-14.52344 -6.38281,-5.75391 8.86133,-5.67969 18.25976,-11.69921 -19.26367,-9.96289 -9.00586,-4.65626 5.72852,-2.45703 19.93164,-8.54687 -17.36719,-12.98633 -6.88281,-5.14844 8.30469,-6.46484 17.11133,-13.32227 -20.09376,-8.1582 -6.86132,-2.78516 4.75,-2.49218 19.20312,-10.07618 -18.32812,-11.59374 -7.26172,-4.59376 7.77344,-7.09374 16.02148,-14.61524 -20.66992,-6.56641 -5.99024,-1.90429 7.60157,-12.22071 11.45312,-18.41406 -21.67578,-0.71094 -4.32813,-0.14257 0.41602,-8.61328 1.04688,-21.66016 -19.28125,9.92383 -4.03907,2.07812 -1.63086,-4.16015 z"
         transform="scale(0.26458333)"
         id="path1117-3-7-6-0-47-2-7-4-9-0-1-7-6-0-2-44-5" />
      <g
         id="g1056">
        <path
           inkscape:connector-curvature="0"
           transform="scale(0.26458333)"
           id="path860"
           d="m -697.90625,-314.35352 c 0.59714,0.45809 1.18604,0.96529 1.75781,1.5879 0.65223,0.71021 1.28878,1.52541 1.90821,2.43945 1.23885,1.82807 2.41249,4.05311 3.52148,6.63086 1.10899,2.57774 2.15387,5.50812 3.13477,8.74804 0.98089,3.23993 1.89736,6.7889 2.75195,10.60352 0.85458,3.81462 1.6469,7.89543 2.37695,12.19727 0.73005,4.30183 1.39857,8.82579 2.00586,13.52734 1.21458,9.40311 2.18572,19.51707 2.91992,29.99414 0.73421,10.47707 1.23196,21.31684 1.5,32.16797 0.26805,10.85113 0.305,21.71299 0.1211,32.23828 -0.1839,10.52529 -0.58931,20.71334 -1.21094,30.21289 -0.62163,9.49956 -1.45876,18.31202 -2.50391,26.08594 254.72387,10.480741 270.24337,-183.75353 252.88672,-405.0918 -1.61359,-59.54158 -78.95861,-73.03544 -98.47851,-4.5332 -16.30798,79.04927 -19.57746,214.85395 -48.92383,237.14844 l -74.51758,6.22656 c -19.3311,-20.3457 -35.23306,-32.51381 -49.25,-40.1836 z"
           style="fill:#ffffff;fill-opacity:1;stroke:#000000;stroke-width:2.26771665;stroke-linecap:round;stroke-linejoin:round;stroke-miterlimit:4;stroke-dasharray:none;stroke-opacity:1" />
        <g
           style="stroke-width:0.60000002;stroke-linecap:round;stroke-linejoin:round;stroke-miterlimit:4;stroke-dasharray:none"
           id="g970">
          <path
             style="fill:none;stroke:#000000;stroke-width:0.60000002;stroke-linecap:round;stroke-linejoin:round;stroke-miterlimit:4;stroke-dasharray:none;stroke-opacity:1"
             d="m -181.14946,-75.004177 c 3.04734,2.853941 5.37242,5.169693 7.47467,8.190104 1.83278,1.625522 5.09956,2.26826 7.73407,2.320635 7.68053,-0.290124 16.61826,-0.146268 19.99911,-4.311401 9.19807,-12.419251 10.43779,-44.610871 12.32266,-62.729151 -0.0635,-6.15938 0.87908,-12.02211 4.72067,-17.10295"
             id="path865-9"
             inkscape:connector-curvature="0"
             sodipodi:nodetypes="cccccc" />
          <path
             style="fill:none;stroke:#000000;stroke-width:0.60000002;stroke-linecap:round;stroke-linejoin:round;stroke-miterlimit:4;stroke-dasharray:none;stroke-opacity:1"
             d="m -178.89344,-39.662146 c 2.64906,0.910093 5.41446,0.973946 8.31547,1.13393 56.99779,4.957873 54.71961,-59.853554 53.24005,-98.363814 -0.23973,-6.23996 -1.98452,-10.14248 -2.78764,-11.00957"
             id="path897"
             inkscape:connector-curvature="0"
             sodipodi:nodetypes="ccsc" />
          <path
             sodipodi:nodetypes="ccccc"
             inkscape:connector-curvature="0"
             id="path962"
             d="m -180.2212,-69.854131 c 2.58498,2.348947 4.02917,3.292971 5.96323,6.071735 7.27669,3.857474 24.6164,2.897091 28.77262,-1.707284 10.52782,-10.092185 12.95868,-47.19187 14.21254,-66.41442 -0.0635,-6.15938 0.87908,-12.02211 4.72067,-17.10295"
             style="fill:none;stroke:#000000;stroke-width:0.60000002;stroke-linecap:round;stroke-linejoin:round;stroke-miterlimit:4;stroke-dasharray:none;stroke-opacity:1" />
          <path
             sodipodi:nodetypes="ccsc"
             inkscape:connector-curvature="0"
             id="path964"
             d="m -178.75593,-41.970551 c 1.9989,0.508914 4.00221,0.749107 6.2098,0.87085 56.99779,4.957873 54.98688,-57.849033 53.50732,-96.359289 -0.23973,-6.23996 -2.01995,-10.23697 -2.82307,-11.10406"
             style="fill:none;stroke:#000000;stroke-width:0.60000002;stroke-linecap:round;stroke-linejoin:round;stroke-miterlimit:4;stroke-dasharray:none;stroke-opacity:1" />
        </g>
      </g>
    </g>
    <g
       id="g1766">
      <path
         inkscape:connector-curvature="0"
         style="opacity:1;vector-effect:none;fill:#ffffff;fill-opacity:1;stroke:#000000;stroke-width:0.50800002;stroke-linecap:round;stroke-linejoin:round;stroke-miterlimit:4;stroke-dasharray:none;stroke-dashoffset:0;stroke-opacity:1;paint-order:markers fill stroke"
         d="m -301.63433,-27.360668 -1.1168,-0.59051 -0.41,3.19149 -0.27877,2.16886 0.68804,5.319345 0.73604,5.690347 -0.77669,-0.323718 -0.13289,2.6686766 -0.10834,2.183827 1.1007,5.250384 1.17716,5.615427 -1.26192,-0.413645 0.55615,2.617629 0.45421,2.139037 2.40945,4.7921344 2.57706,5.126767 -0.84014,-0.04839 0.75771,2.562026 0.61988,2.097606 2.77547,4.589235 0.98028,1.620999 0.20057,-0.532177 3.63602,4.438639 1.38657,1.693087 4.33904,3.150595 4.64298,3.3714 -0.23942,0.106442 2.59435,1.284124 1.96045,0.970523 1.43983,5.370378 -0.71601,-2.158352 -2.31823,1.543431 -4.77528,3.180768 -0.36655,-5.726017 -0.21724,-3.396197 -2.60317,1.159814 -5.24127,2.334913 0.5983,-5.706324 0.23708,-2.261444 -2.74749,0.45117 -5.66206,0.929153 2.02603,-5.367792 0.55912,-1.48127 -2.48144,0.05034 -5.73617,0.116332 2.76705,-5.026255 1.09647,-1.991641 -2.70721,-0.65146 -5.57815,-1.342223 3.95156,-4.160065 1.34952,-1.420857 -1.41654,-0.082 -5.72863,-0.331541 3.15153,-4.794711 1.2487,-1.900399 -2.64863,-0.8608114 -5.45633,-1.773505 4.26389,-3.839017 1.9962,-1.79683 -1.28561,-0.421801 -5.45206,-1.78767401 4.2749,-3.82774799 1.69385,-1.516656 -2.33942,-1.510624 -4.82017,-3.112639 5.10523,-2.6182256 1.74359,-0.89404 -1.3102,-0.546169 -5.2959,-2.207853 4.56042,-3.482969 1.80712,-1.379857 -2.21444,-1.688632 -4.5632,-3.47843 5.29451,-2.21235 2.47518,-1.0339 c 1.13145,0.7598 3.58524,0.54924 3.61416,1.91182 z"
         id="path1117-3-7-6-0-47-2-7-4-9-0-1-7-6-0-2-44-5-5-0"
         sodipodi:nodetypes="cccccccccccccccccccccccccccccccccccccccccccccccccccccccccccccccccccccccccccc" />
      <path
         inkscape:connector-curvature="0"
         style="opacity:1;vector-effect:none;fill:#ffffff;fill-opacity:1;stroke:#000000;stroke-width:0.50800002;stroke-linecap:round;stroke-linejoin:round;stroke-miterlimit:4;stroke-dasharray:none;stroke-dashoffset:0;stroke-opacity:1;paint-order:markers fill stroke"
         d="m -184.05366,-25.374975 1.1168,-0.590516 0.41,3.191489 0.27877,2.168868 -0.68804,5.319341 -0.73604,5.6903476 0.77669,-0.3237189 0.13289,2.6686773 0.10834,2.1838268 -1.1007,5.25038468 -1.17716,5.61542512 1.26192,-0.4136436 -0.55615,2.6176297 -0.45421,2.1390373 -2.40945,4.792133 -2.57706,5.126768 0.84014,-0.04839 -0.75771,2.562026 -0.61988,2.097605 -2.77547,4.589235 -0.98028,1.621001 -0.20057,-0.532178 -3.63602,4.438639 -1.38657,1.693087 -4.33904,3.150595 -4.64298,3.371401 0.23942,0.106442 -2.59435,1.284121 -1.96045,0.970526 -1.43983,5.370376 0.71601,-2.158352 2.31823,1.543432 4.77528,3.180766 0.36655,-5.726015 0.21724,-3.396197 2.60317,1.159814 5.24127,2.334913 -0.5983,-5.706324 -0.23708,-2.261445 2.74749,0.451172 5.66206,0.929153 -2.02603,-5.367793 -0.55912,-1.481271 2.48144,0.05034 5.73617,0.116332 -2.76705,-5.026256 -1.09647,-1.99164 2.70721,-0.651458 5.57815,-1.342225 -3.95156,-4.160063 -1.34952,-1.420858 1.41654,-0.082 5.72863,-0.331543 -3.15153,-4.794709 -1.2487,-1.900399 2.64863,-0.86081 5.45633,-1.773506 -4.26389,-3.8390169 -1.9962,-1.79683 1.28561,-0.4218016 5.45206,-1.7876719 -4.2749,-3.8277493 -1.69385,-1.5166558 2.33942,-1.5106239 4.82017,-3.1126395 -5.10523,-2.6182261 -1.74359,-0.89404 1.3102,-0.546169 5.2959,-2.207853 -4.56042,-3.482969 -1.80712,-1.379857 2.21444,-1.688627 4.5632,-3.478437 -5.29451,-2.212344 -2.47518,-1.033904 c -1.13145,0.759799 -3.58524,0.549239 -3.61416,1.911822 z"
         id="path1117-3-7-6-0-47-2-7-4-9-0-1-7-6-0-2-44-5-5"
         sodipodi:nodetypes="cccccccccccccccccccccccccccccccccccccccccccccccccccccccccccccccccccccccccccc" />
      <g
         id="g1083">
        <g
           id="g1067">
          <path
             inkscape:connector-curvature="0"
             transform="scale(0.26458333)"
             id="path1023"
             d="m -768.21875,-333.5 -303.19535,2.3418 c -20.6272,3.78775 -39.4573,3.28564 -64.164,16.80468 -0.5972,0.45809 -1.1861,0.96529 -1.7578,1.5879 -0.6523,0.7102 -1.2888,1.52541 -1.9082,2.43945 -1.2389,1.82807 -2.4125,4.05311 -3.5215,6.63086 -1.109,2.57774 -2.1539,5.50812 -3.1348,8.74804 -0.9809,3.23993 -1.8974,6.7889 -2.7519,10.60352 -0.8546,3.81462 -1.6469,7.89543 -2.377,12.19727 -0.4558,2.68607 -0.8869,5.4582 -1.2949,8.30664 -0.2454,1.71342 -0.4829,3.45481 -0.711,5.2207 -1.2145,9.40311 -2.1857,19.51707 -2.9199,29.99414 -0.7342,10.47707 -1.2319,21.31684 -1.5,32.16797 -0.268,10.85113 -0.305,21.71299 -0.1211,32.23828 0.1839,10.52529 0.5893,20.71333 1.211,30.21289 0.6216,9.49956 1.4587,18.31202 2.5039,26.08594 6.0325,60.787717 -31.1278,195.256218 100.25,278.4082 l 48.7539,73.28516 c 10.11981,14.32913 23.84519,10.709 27.86521,0.625 l 38.96289,-96.81446 c 3.63077,-11.0214 12.03434,-12.86764 21.28711,-12.63671 9.25278,-0.23093 17.65635,1.61531 21.28711,12.63671 l 38.96289,96.81446 c 4.02002,10.084 17.74536,13.70413 27.86524,-0.625 l 48.7539,-73.28516 c 131.37778,-83.151982 94.2175,-217.620483 100.25,-278.4082 1.04515,-7.77392 1.88228,-16.58638 2.50391,-26.08594 0.62163,-9.49955 1.02704,-19.6876 1.21094,-30.21289 0.1839,-10.52529 0.14695,-21.38715 -0.1211,-32.23828 -0.26804,-10.85113 -0.76579,-21.6909 -1.5,-32.16797 -0.7342,-10.47707 -1.70534,-20.59103 -2.91992,-29.99414 -0.60729,-4.70155 -1.27581,-9.22551 -2.00586,-13.52734 -0.73005,-4.30184 -1.52237,-8.38265 -2.37695,-12.19727 -0.85459,-3.81462 -1.77106,-7.36359 -2.75195,-10.60352 -0.9809,-3.23992 -2.02578,-6.1703 -3.13477,-8.74804 -1.10899,-2.57775 -2.28263,-4.80279 -3.52148,-6.63086 -0.61943,-0.91404 -1.25598,-1.72926 -1.90821,-2.43945 -0.57177,-0.62261 -1.16067,-1.12981 -1.75781,-1.5879 -27.20939,-14.88841 -47.18184,-12.51256 -70.4082,-17.90039 0.0394,-0.42355 0.0569,-0.82327 0.0957,-1.24609 z"
             style="fill:#ffffff;fill-opacity:1;stroke:#000000;stroke-width:2.26771665;stroke-linecap:round;stroke-linejoin:round;stroke-miterlimit:4;stroke-dasharray:none;stroke-opacity:1" />
        </g>
        <path
           style="color:#000000;font-style:normal;font-variant:normal;font-weight:normal;font-stretch:normal;font-size:medium;line-height:normal;font-family:sans-serif;font-variant-ligatures:normal;font-variant-position:normal;font-variant-caps:normal;font-variant-numeric:normal;font-variant-alternates:normal;font-feature-settings:normal;text-indent:0;text-align:start;text-decoration:none;text-decoration-line:none;text-decoration-style:solid;text-decoration-color:#000000;letter-spacing:normal;word-spacing:normal;text-transform:none;writing-mode:lr-tb;direction:ltr;text-orientation:mixed;dominant-baseline:auto;baseline-shift:baseline;text-anchor:start;white-space:normal;shape-padding:0;clip-rule:nonzero;display:inline;overflow:visible;visibility:visible;opacity:1;isolation:auto;mix-blend-mode:normal;color-interpolation:sRGB;color-interpolation-filters:linearRGB;solid-color:#000000;solid-opacity:1;vector-effect:none;fill:#000000;fill-opacity:1;fill-rule:nonzero;stroke:none;stroke-width:2.26771665;stroke-linecap:round;stroke-linejoin:round;stroke-miterlimit:4;stroke-dasharray:none;stroke-dashoffset:0;stroke-opacity:1;color-rendering:auto;image-rendering:auto;shape-rendering:auto;text-rendering:auto;enable-background:accumulate"
           d="m -824.8457,-333.0625 -2.30469,0.0176 c 6.7e-4,0.0433 10e-4,0.0856 0.002,0.1289 0.003,0.15591 0.0384,0.3095 0.10352,0.45118 47.173,102.99702 50.30286,227.15796 41.62695,324.3749962 -4.33795,48.6085148 -11.61915,90.4806528 -17.79883,119.6015638 -3.08984,14.56045 -5.90681,25.9315 -7.93554,33.35742 -1.01435,3.71296 -1.83312,6.44645 -2.38282,8.06836 -0.19691,0.5816 -0.30457,0.82227 -0.41406,1.08594 -0.003,0.003 -0.005,0.005 -0.008,0.008 -0.27014,0.1877 -0.44546,0.48347 -0.48047,0.81055 -3.36469,31.84433 -9.40805,64.49453 -24.06445,96.23828 -0.63505,1.37356 1.42549,2.32668 2.06054,0.95312 14.69122,-31.81914 20.74568,-64.47515 24.13868,-96.20898 0.10242,-0.13247 0.1514,-0.22768 0.20507,-0.33203 0.21506,-0.4174 0.42019,-0.97793 0.70899,-1.83008 0.57762,-1.7043 1.408,-4.45559 2.42969,-8.19531 2.04336,-7.47944 4.85895,-18.89087 7.95703,-33.49024 6.19615,-29.198716 13.49413,-71.149671 17.84179,-119.867185 8.68582,-97.328075 5.6093,-221.650615 -41.68554,-325.171875 z m -19.26563,0.14844 -2.26367,0.0176 c 0.0104,0.66852 0.0229,1.3272 0.0332,1.99609 0.002,0.15789 0.0376,0.31356 0.10352,0.45703 47.17296,102.99704 50.30286,227.15016 41.62695,324.3671881 -4.33795,48.6085139 -11.61723,90.4806589 -17.79687,119.6015619 -3.08984,14.56046 -5.90681,25.94127 -7.93555,33.36719 -1.01439,3.71296 -1.83507,6.43865 -2.38477,8.06054 -0.19615,0.57914 -0.30453,0.82178 -0.41406,1.08594 -0.27431,0.18824 -0.45211,0.48744 -0.48633,0.81836 -0.003,0.0302 -0.004,0.0595 -0.008,0.0899 -3.3676,31.88355 -5.76922,60.56346 -20.39648,92.24414 -0.74549,1.41384 1.4744,2.43112 2.05859,0.94336 14.70841,-31.8564 17.17748,-60.72537 20.50781,-92.33204 0.0771,-0.10646 0.13125,-0.19696 0.17774,-0.28711 0.21505,-0.41738 0.42015,-0.97988 0.70898,-1.83203 0.57759,-1.70429 1.40605,-4.45364 2.42774,-8.19336 2.04336,-7.47943 4.85895,-18.89282 7.95703,-33.49218 6.19619,-29.198724 13.49409,-71.149677 17.84179,-119.8671906 8.68853,-97.3584694 5.60875,-221.7269894 -41.72851,-325.2675794 -0.009,-0.59559 -0.0201,-1.18204 -0.0293,-1.77734 z m -144.33984,1.11523 -2.26367,0.0176 c -0.01,0.64102 -0.0214,1.27271 -0.0312,1.91406 -47.33726,103.5406 -50.41696,227.90325 -41.72856,325.2617212 4.3478,48.7175118 11.6457,90.6743238 17.8419,119.8730488 3.0981,14.59936 5.9137,26.00493 7.957,33.48437 1.0217,3.73972 1.8521,6.49689 2.4297,8.20117 0.2888,0.85215 0.4921,1.40682 0.707,1.82422 0.046,0.0901 0.1007,0.18064 0.1778,0.28711 3.3303,31.60671 5.79932,60.48345 20.50773,92.33985 0.60744,1.44302 2.76379,0.44667 2.0586,-0.95118 -14.6273,-31.68062 -17.02886,-60.35278 -20.39643,-92.23632 0,-0.0302 0,-0.0594 -0.01,-0.0899 -0.036,-0.32808 -0.214,-0.62402 -0.4863,-0.81054 -0.1097,-0.26347 -0.2166,-0.51118 -0.4141,-1.09375 -0.5497,-1.62191 -1.3685,-4.3554 -2.3828,-8.06836 -2.0288,-7.42592 -4.8457,-18.79893 -7.9356,-33.35938 -6.1796,-29.120904 -13.4608,-70.991092 -17.7988,-119.5996075 -8.6759,-97.2170325 -5.546,-221.3720925 41.62691,-324.3691425 0.0659,-0.14347 0.1012,-0.29914 0.10351,-0.45703 0.0112,-0.72645 0.0239,-1.44194 0.0352,-2.16797 z m -20.55473,0.15821 -2.2695,0.0176 c 0,0.10376 0,0.20482 -0.01,0.3086 -47.3373,103.54059 -50.419,227.90909 -41.7305,325.267575 4.3477,48.717514 11.6456,90.67628 17.8418,119.874995 3.0981,14.59936 5.9215,26.00494 7.9648,33.48438 1.0217,3.73972 1.8443,6.48906 2.4219,8.19336 0.2888,0.85215 0.494,1.41463 0.709,1.83203 0.054,0.10435 0.1046,0.19956 0.207,0.33203 3.3808,31.66045 8.6914,60.85618 23.3711,92.65039 0.61958,1.41486 2.73663,0.43467 2.0586,-0.95312 -14.6636,-31.75932 -19.9234,-60.82626 -23.2891,-92.67969 -0.037,-0.33262 -0.2181,-0.63213 -0.4961,-0.81836 -0.1096,-0.26366 -0.2148,-0.50433 -0.4121,-1.08594 -0.5496,-1.62191 -1.3704,-4.3554 -2.3847,-8.06836 -2.0288,-7.42591 -4.8379,-18.79892 -7.9278,-33.35937 -6.1796,-29.120914 -13.4667,-70.993046 -17.8047,-119.6015638 -8.6759,-97.2170362 -5.5401,-221.3779862 41.6329,-324.3749962 0.065,-0.14107 0.1001,-0.29397 0.1035,-0.44922 0,-0.1918 0.01,-0.37858 0.01,-0.57031 z"
           id="path835"
           transform="scale(0.26458333)"
           inkscape:connector-curvature="0"
           sodipodi:nodetypes="ccccsscccccccccccsscccccsccccccccccccsscccccsscccccccccccccccccccsscsccccccccccccc" />
      </g>
    </g>
    <g
       id="g1779">
      <path
         style="opacity:1;vector-effect:none;fill:#ffffff;fill-opacity:1;stroke:#000000;stroke-width:1.92000008;stroke-linecap:round;stroke-linejoin:round;stroke-miterlimit:4;stroke-dasharray:none;stroke-dashoffset:0;stroke-opacity:1;paint-order:markers fill stroke"
         d="m -914.19141,-714.2207 -11.41797,18.43554 -5.45117,8.80274 -8.23047,-6.88477 -16.63476,-13.91211 -3.73633,21.36328 -1.92578,11.0293 -6.90625,-4.80859 -17.79688,-12.39063 -1.83398,21.60742 -0.98438,11.61133 -9.00976,-2.01367 -21.16406,-4.73047 6.4844,20.69336 2.4746,7.89453 -5.7813,-0.68945 -21.5332,-2.57227 8.5391,19.9336 4.2285,9.86718 -7.5937,0.99415 -21.502,2.81835 13.1914,17.2129 4.4336,5.78515 -7.7051,1.00977 -21.5019,2.8164 13.1894,17.21289 6.6778,8.71289 -11.0547,4.15821 -20.2989,7.63476 16.7598,13.76172 7.334,6.02149 -10.4902,5.16406 -19.4551,9.57812 18.0234,12.06055 5.3731,3.59375 -7.791,3.83594 -19.4551,9.58008 18.0234,12.05859 6.377,4.26758 -10.7071,6.15039 -18.8047,10.80078 18.7579,10.88477 9.0918,5.27734 -8.334,4.78711 -18.8028,10.80078 18.7559,10.88477 7.8594,4.56054 -8.8223,5.06836 -18.8047,10.80078 18.7578,10.88477 8.5567,4.9668 -5.4785,3.14648 -18.8047,10.80274 18.7558,10.88281 18.7578,10.88476 0.047,-21.68554 0.049,-21.68555 -3.0996,1.78125 0.023,-9.89453 0.022,-10.17578 0.9414,0.54687 0.047,-21.6875 0.047,-21.68555 -0.7832,0.44922 0.023,-10.51367 0.027,-11.63086 3.5723,2.39063 1.4316,-21.63867 0.5742,-8.66602 1.8438,1.23437 1.4316,-21.63867 0.6934,-10.46875 1.2011,0.98633 3.5371,-21.39648 2.0528,-12.41797 7.0683,-17.03125 2.9766,-7.17578 0.293,0.38086 8.3125,-20.03125 8.3105,-20.0293 -0.7754,0.10156 4.1719,-5.57422 12.99414,-17.36328 -1.5332,-0.18359 4.4707,-4.86133 12.76953,-13.89062 8.53711,-4.00782 19.63086,-9.21679 -1.7832,-1.24219 9.45312,-3.45899 12.67969,-4.63671 14.99219,0.46289 18.18554,0.5625 11.25782,4.11718 9.45312,3.45899 -1.7832,1.24218 19.63086,9.2168 8.53711,4.00781 12.76953,13.89063 4.4707,4.86133 -1.5332,0.18359 12.99414,17.36328 4.17187,5.57422 -0.77539,-0.10156 8.31055,20.0293 8.3125,20.03125 0.29297,-0.38086 2.97656,7.17578 7.06836,17.03125 2.05274,12.41797 3.5371,21.39648 1.20118,-0.98633 0.69336,10.46875 1.43164,21.63867 1.84375,-1.23437 0.57422,8.66601 1.43164,21.63868 3.57226,-2.39063 0.0254,11.63086 0.0234,10.51367 -0.7832,-0.44922 0.0469,21.68555 0.0469,21.6875 0.9414,-0.54687 0.0215,10.17578 0.0215,9.89453 -3.09961,-1.78125 0.0488,21.68555 6.1078,18.65508 12.69689,-7.8543 18.75586,-10.88282 -18.80469,-10.80273 -5.47852,-3.14648 8.55664,-4.9668 18.75782,-10.88477 -18.80469,-10.80078 -8.82227,-5.06836 7.85938,-4.56054 18.75586,-10.88477 -18.80274,-10.80078 -8.33398,-4.78711 9.0918,-5.27734 18.75781,-10.88477 -18.80469,-10.80078 -10.70703,-6.15039 6.37695,-4.26758 18.02344,-12.05859 -19.45508,-9.58008 -7.79101,-3.83594 5.37304,-3.59375 18.02344,-12.06055 -19.45508,-9.57812 -10.49023,-5.16406 7.33398,-6.02149 16.75977,-13.76172 -20.29883,-7.63476 -11.05469,-4.15821 6.67774,-8.71289 13.18945,-17.21289 -21.50195,-2.8164 -7.70508,-1.00977 4.43359,-5.78515 13.19141,-17.2129 -21.50195,-2.81836 -7.59375,-0.99414 4.22851,-9.86718 8.53906,-19.9336 -21.5332,2.57227 -5.78125,0.68945 2.47461,-7.89453 6.48438,-20.69336 -21.16407,4.73047 -9.00976,2.01367 -0.98438,-11.61133 -1.83398,-21.60742 -17.79688,12.39063 -6.90625,4.80859 -1.92578,-11.0293 -3.73242,-21.36328 -16.63476,13.91211 -9.21485,7.70703 -5.07812,-9.46093 z"
         transform="scale(0.26458333)"
         id="path1721"
         inkscape:connector-curvature="0"
         sodipodi:nodetypes="ccccccccccccccccccccccccccccccccccccccccccccccccccccccccccccccccccccccccccccccccccccccccccccccccccccccccccccccccccccccccccccccccccccccccccccccccccccccccccccccccccccccccccccccccccccccc" />
      <g
         id="g1048">
        <path
           inkscape:connector-curvature="0"
           transform="scale(0.26458333)"
           style="fill:#ffffff;fill-opacity:1;stroke:#000000;stroke-width:2.26771665;stroke-linecap:round;stroke-linejoin:round;stroke-miterlimit:4;stroke-dasharray:none;stroke-opacity:1"
           d="m -916.04297,-686.46875 c -30.2536,0.0208 -60.34452,13.0417 -87.35933,37.51367 -46.3211,56.87429 -76.1158,162.50347 -61.7676,316.70117 -2.1363,0.49555 -4.1548,0.71204 -6.2442,1.09571 l 303.19535,-2.3418 c 13.82476,-150.86302 -14.65698,-255.09764 -59.49023,-312.48047 -27.66501,-27.53015 -58.08039,-40.50905 -88.33399,-40.48828 z"
           id="path826" />
        <path
           inkscape:connector-curvature="0"
           style="color:#000000;font-style:normal;font-variant:normal;font-weight:normal;font-stretch:normal;font-size:medium;line-height:normal;font-family:sans-serif;font-variant-ligatures:normal;font-variant-position:normal;font-variant-caps:normal;font-variant-numeric:normal;font-variant-alternates:normal;font-feature-settings:normal;text-indent:0;text-align:start;text-decoration:none;text-decoration-line:none;text-decoration-style:solid;text-decoration-color:#000000;letter-spacing:normal;word-spacing:normal;text-transform:none;writing-mode:lr-tb;direction:ltr;text-orientation:mixed;dominant-baseline:auto;baseline-shift:baseline;text-anchor:start;white-space:normal;shape-padding:0;clip-rule:nonzero;display:inline;overflow:visible;visibility:visible;opacity:1;isolation:auto;mix-blend-mode:normal;color-interpolation:sRGB;color-interpolation-filters:linearRGB;solid-color:#000000;solid-opacity:1;vector-effect:none;fill:#000000;fill-opacity:1;fill-rule:nonzero;stroke:none;stroke-width:2.26771665;stroke-linecap:round;stroke-linejoin:round;stroke-miterlimit:4;stroke-dasharray:none;stroke-dashoffset:0;stroke-opacity:1;color-rendering:auto;image-rendering:auto;shape-rendering:auto;text-rendering:auto;enable-background:accumulate"
           d="m -884.10352,-681.56445 a 1.1339717,1.1339717 0 0 0 0.44727,1.28711 c 6.69192,4.67342 12.63399,18.21779 17.31055,38.5625 4.67652,20.3447 8.25188,47.44227 10.99804,79.25195 5.44939,63.12139 7.6568,144.83123 8.97266,229.56641 l 2.26367,-0.0176 c -1.31596,-84.7569 -3.51698,-166.50854 -8.97656,-229.74805 -2.75116,-31.86746 -6.32449,-59.03539 -11.04297,-79.5625 -4.24715,-18.47676 -9.29808,-31.5911 -15.95508,-38.00586 -1.33757,-0.47183 -2.67629,-0.91643 -4.01758,-1.33398 z m -67.39648,1.07226 c -1.3832,0.46665 -2.76536,0.95428 -4.14258,1.47461 -6.57897,6.46811 -11.53602,19.54593 -15.68945,37.9082 -4.64712,20.54499 -8.12688,47.73809 -10.7832,79.62891 -5.26859,63.25166 -7.28646,144.99229 -8.59961,229.69922 l 2.26367,-0.0176 c 1.31303,-84.67605 3.33566,-166.37191 8.59375,-229.49805 2.6516,-31.83366 6.12661,-58.94826 10.73242,-79.31054 4.60581,-20.36232 10.50401,-33.9221 17.19336,-38.59375 a 1.1339717,1.1339717 0 0 0 0.43164,-1.29102 z m 86.30859,6.68946 a 1.1339717,1.1339717 0 0 0 0.39649,1.42382 c 6.72839,4.6989 12.65536,17.61588 17.36133,37.02735 4.706,19.4115 8.32155,45.25784 11.10937,75.82617 5.57281,61.10572 7.86136,141.0794 9.17383,226.48047 l 2.30469,-0.0176 c -0.0148,-0.0323 -0.0282,-0.0653 -0.043,-0.0977 -1.31297,-85.38728 -3.59369,-165.36493 -9.17578,-226.57226 -2.79338,-30.62952 -6.41023,-56.55736 -11.16211,-76.1582 -3.96111,-16.33891 -8.61992,-28.29655 -14.5586,-34.97266 -1.79559,-1.03215 -3.59887,-2.01177 -5.40625,-2.93945 z m -106.05078,1.89843 c -1.85807,0.99468 -3.7077,2.03731 -5.54883,3.13086 -5.85843,6.71035 -10.45587,18.60162 -14.36132,34.78711 -4.72815,19.59508 -8.31829,45.51522 -11.08006,76.13672 -5.5122,61.11701 -7.7296,140.95685 -9.043,226.22656 l 2.2695,-0.0176 c 1.3133,-85.23419 3.5331,-165.01803 9.03324,-226.00196 2.7563,-30.56058 6.33911,-56.40704 11.02149,-75.8125 4.68242,-19.40545 10.60405,-32.32093 17.33203,-37.01953 a 1.1339717,1.1339717 0 0 0 0.37695,-1.42969 z"
           id="path1042"
           transform="scale(0.26458333)" />
      </g>
      <path
         inkscape:connector-curvature="0"
         id="path1728"
         d="m -232.52448,-142.52474 15.50162,-8.15172"
         style="fill:none;stroke:#000000;stroke-width:1.86500001;stroke-linecap:round;stroke-linejoin:round;stroke-miterlimit:4;stroke-dasharray:none;stroke-opacity:1" />
      <path
         style="fill:none;stroke:#000000;stroke-width:1.86500001;stroke-linecap:round;stroke-linejoin:round;stroke-miterlimit:4;stroke-dasharray:none;stroke-opacity:1"
         d="m -254.4406,-143.46018 -15.50162,-8.15172"
         id="path1726"
         inkscape:connector-curvature="0" />
      <g
         id="g995"
         style="fill:#ffffff;fill-opacity:1">
        <ellipse
           transform="rotate(6.658993)"
           ry="8.5040445"
           rx="12.494163"
           cy="-105.59161"
           cx="-274.7388"
           id="path986"
           style="opacity:1;vector-effect:none;fill:#ffffff;fill-opacity:1;stroke:#000000;stroke-width:1.14493608;stroke-linecap:round;stroke-linejoin:round;stroke-miterlimit:4;stroke-dasharray:none;stroke-dashoffset:0;stroke-opacity:1;paint-order:markers fill stroke" />
        <ellipse
           transform="rotate(-10.890174)"
           style="opacity:1;vector-effect:none;fill:#ffffff;fill-opacity:1;stroke:#000000;stroke-width:1.14493608;stroke-linecap:round;stroke-linejoin:round;stroke-miterlimit:4;stroke-dasharray:none;stroke-dashoffset:0;stroke-opacity:1;paint-order:markers fill stroke"
           id="ellipse988"
           cx="-195.62737"
           cy="-176.88272"
           rx="12.494163"
           ry="8.5040445" />
        <path
           sodipodi:nodetypes="cc"
           inkscape:connector-curvature="0"
           id="path990"
           d="m -248.06443,-136.82941 c 3.28301,-0.88081 6.765,-0.84571 10.048,-0.0457"
           style="fill:#ffffff;fill-opacity:1;stroke:#000000;stroke-width:1.14493608;stroke-linecap:butt;stroke-linejoin:miter;stroke-miterlimit:4;stroke-dasharray:none;stroke-opacity:1" />
      </g>
      <path
         style="fill:none;stroke:#000000;stroke-width:2.06500006;stroke-linecap:round;stroke-linejoin:round;stroke-miterlimit:4;stroke-dasharray:none;stroke-opacity:1"
         d="m -250.64545,-109.98585 c 5.10268,-8.50707 10.20535,-8.87821 15.30803,0"
         id="path1724"
         inkscape:connector-curvature="0"
         sodipodi:nodetypes="cc" />
    </g>
  </g>
</svg>
