<?xml version="1.0" encoding="UTF-8" standalone="no"?>
<!-- Created with Inkscape (http://www.inkscape.org/) -->

<svg
   xmlns:dc="http://purl.org/dc/elements/1.1/"
   xmlns:cc="http://creativecommons.org/ns#"
   xmlns:rdf="http://www.w3.org/1999/02/22-rdf-syntax-ns#"
   xmlns:svg="http://www.w3.org/2000/svg"
   xmlns="http://www.w3.org/2000/svg"
   xmlns:xlink="http://www.w3.org/1999/xlink"
   xmlns:sodipodi="http://sodipodi.sourceforge.net/DTD/sodipodi-0.dtd"
   xmlns:inkscape="http://www.inkscape.org/namespaces/inkscape"
   width="267.95142mm"
   height="544.53815mm"
   viewBox="0 0 267.95142 544.53815"
   version="1.1"
   id="svg2131"
   inkscape:version="0.92.3 (2405546, 2018-03-11)"
   sodipodi:docname="cactus.svg">
  <defs
     id="defs2125">
    <inkscape:path-effect
       effect="bend_path"
       id="path-effect3381"
       is_visible="true"
       bendpath="m -565.17993,797.75806 c 256.89909,-157.78906 516.832351,-205.74084 783.7737,0"
       prop_scale="0.97693336"
       scale_y_rel="false"
       vertical="false"
       bendpath-nodetypes="cc" />
    <linearGradient
       inkscape:collect="always"
       xlink:href="#linearGradient1238"
       id="linearGradient1232"
       x1="140.51665"
       y1="-47.26796"
       x2="114.81426"
       y2="71.399712"
       gradientUnits="userSpaceOnUse" />
    <linearGradient
       id="linearGradient1238"
       inkscape:collect="always">
      <stop
         id="stop1234"
         offset="0"
         style="stop-color:#0b160f;stop-opacity:1" />
      <stop
         id="stop1236"
         offset="1"
         style="stop-color:#416836;stop-opacity:1" />
    </linearGradient>
    <linearGradient
       inkscape:collect="always"
       xlink:href="#linearGradient1238"
       id="linearGradient1230"
       x1="244.53453"
       y1="-62.314117"
       x2="219.6656"
       y2="39.248306"
       gradientUnits="userSpaceOnUse"
       gradientTransform="rotate(3.7070992,182.15317,-115.50309)" />
    <linearGradient
       inkscape:collect="always"
       xlink:href="#linearGradient1238"
       id="linearGradient1246"
       x1="95.324265"
       y1="-59.226723"
       x2="85.864929"
       y2="27.368603"
       gradientUnits="userSpaceOnUse" />
    <linearGradient
       inkscape:collect="always"
       xlink:href="#linearGradient1238"
       id="linearGradient1310"
       x1="282.45956"
       y1="-43.927334"
       x2="282.97208"
       y2="29.839056"
       gradientUnits="userSpaceOnUse"
       gradientTransform="rotate(3.7070992,182.15317,-115.50309)" />
    <linearGradient
       inkscape:collect="always"
       xlink:href="#linearGradient1395"
       id="linearGradient1415"
       x1="176.66003"
       y1="-130.1891"
       x2="177.27965"
       y2="-150.97778"
       gradientUnits="userSpaceOnUse" />
    <linearGradient
       inkscape:collect="always"
       id="linearGradient1395">
      <stop
         style="stop-color:#f9f9fb;stop-opacity:1;"
         offset="0"
         id="stop1391" />
      <stop
         style="stop-color:#f4d7c0;stop-opacity:1"
         offset="1"
         id="stop1393" />
    </linearGradient>
    <linearGradient
       inkscape:collect="always"
       xlink:href="#linearGradient1345"
       id="linearGradient1347"
       x1="191.86496"
       y1="-14.452375"
       x2="192.58833"
       y2="198.7262"
       gradientUnits="userSpaceOnUse" />
    <linearGradient
       inkscape:collect="always"
       id="linearGradient1345">
      <stop
         style="stop-color:#322724;stop-opacity:1"
         offset="0"
         id="stop1341" />
      <stop
         id="stop1349"
         offset="0.60155529"
         style="stop-color:#694626;stop-opacity:1" />
      <stop
         style="stop-color:#55402b;stop-opacity:1"
         offset="1"
         id="stop1343" />
    </linearGradient>
    <linearGradient
       inkscape:collect="always"
       xlink:href="#linearGradient1355"
       id="linearGradient1389"
       gradientUnits="userSpaceOnUse"
       gradientTransform="matrix(-0.99012677,0.14017479,0.14017479,0.99012677,-398.29091,10.614759)"
       x1="-219.89398"
       y1="-76.910072"
       x2="-177.53581"
       y2="-115.12962" />
    <linearGradient
       inkscape:collect="always"
       id="linearGradient1355">
      <stop
         style="stop-color:#8eb73e;stop-opacity:1;"
         offset="0"
         id="stop1351" />
      <stop
         style="stop-color:#547a42;stop-opacity:1"
         offset="1"
         id="stop1353" />
    </linearGradient>
    <linearGradient
       inkscape:collect="always"
       xlink:href="#linearGradient1355"
       id="linearGradient1385"
       gradientUnits="userSpaceOnUse"
       x1="-219.89398"
       y1="-76.910072"
       x2="-177.53581"
       y2="-115.12962"
       gradientTransform="rotate(8.0579609,-74.095908,-166.35963)" />
    <linearGradient
       inkscape:collect="always"
       xlink:href="#linearGradient1355"
       id="linearGradient1381"
       x1="-226.84299"
       y1="-89.664658"
       x2="-197.45688"
       y2="-109.17533"
       gradientUnits="userSpaceOnUse" />
    <linearGradient
       inkscape:collect="always"
       xlink:href="#linearGradient1355"
       id="linearGradient1365"
       x1="-219.89398"
       y1="-76.910072"
       x2="-177.53581"
       y2="-115.12962"
       gradientUnits="userSpaceOnUse" />
    <linearGradient
       inkscape:collect="always"
       xlink:href="#linearGradient1355"
       id="linearGradient1373"
       x1="-236.59439"
       y1="-59.264717"
       x2="-201.44463"
       y2="-79.577202"
       gradientUnits="userSpaceOnUse" />
    <linearGradient
       inkscape:collect="always"
       xlink:href="#linearGradient1355"
       id="linearGradient1357"
       x1="-223.8669"
       y1="-43.832104"
       x2="-175.12955"
       y2="-82.586182"
       gradientUnits="userSpaceOnUse" />
    <linearGradient
       inkscape:collect="always"
       xlink:href="#linearGradient1395"
       id="linearGradient1407"
       x1="-243.0125"
       y1="-31.948565"
       x2="-256.43054"
       y2="-87.273354"
       gradientUnits="userSpaceOnUse" />
    <linearGradient
       inkscape:collect="always"
       xlink:href="#linearGradient1395"
       id="linearGradient1397"
       x1="-195.35751"
       y1="-38.199173"
       x2="-172.34431"
       y2="-73.478752"
       gradientUnits="userSpaceOnUse" />
    <linearGradient
       inkscape:collect="always"
       xlink:href="#linearGradient1339"
       id="linearGradient1318"
       x1="217.29591"
       y1="-86.025024"
       x2="279.68286"
       y2="-14.396788"
       gradientUnits="userSpaceOnUse"
       gradientTransform="rotate(3.7070992,182.15317,-115.50309)" />
    <linearGradient
       inkscape:collect="always"
       id="linearGradient1339">
      <stop
         style="stop-color:#1e3b28;stop-opacity:1"
         offset="0"
         id="stop1335" />
      <stop
         style="stop-color:#4f7e42;stop-opacity:1"
         offset="1"
         id="stop1337" />
    </linearGradient>
    <linearGradient
       inkscape:collect="always"
       xlink:href="#linearGradient1339"
       id="linearGradient1320"
       gradientUnits="userSpaceOnUse"
       x1="-200.78476"
       y1="-161.85741"
       x2="-93.421753"
       y2="-113.21436"
       gradientTransform="rotate(3.7070992,-57.900412,5857.1466)" />
    <linearGradient
       inkscape:collect="always"
       xlink:href="#linearGradient1339"
       id="linearGradient1322"
       gradientUnits="userSpaceOnUse"
       x1="-180.47227"
       y1="-172.54819"
       x2="-159.17006"
       y2="-25.549948"
       gradientTransform="rotate(3.7070992,-57.900412,5857.1466)" />
    <linearGradient
       inkscape:collect="always"
       xlink:href="#linearGradient1339"
       id="linearGradient1324"
       gradientUnits="userSpaceOnUse"
       x1="-220.02817"
       y1="-167.2028"
       x2="-130.83948"
       y2="-112.14528"
       gradientTransform="rotate(3.7070992,-57.900412,5857.1466)" />
    <linearGradient
       inkscape:collect="always"
       xlink:href="#linearGradient1339"
       id="linearGradient1326"
       gradientUnits="userSpaceOnUse"
       x1="-208.89618"
       y1="-163.81166"
       x2="-178.41345"
       y2="-128.18144"
       gradientTransform="rotate(3.7070992,-57.900412,5857.1466)" />
    <linearGradient
       inkscape:collect="always"
       xlink:href="#linearGradient1339"
       id="linearGradient1328"
       gradientUnits="userSpaceOnUse"
       x1="-203.992"
       y1="-149.563"
       x2="-190.17332"
       y2="-125.50875"
       gradientTransform="rotate(3.7070992,-57.900412,5857.1466)" />
    <linearGradient
       inkscape:collect="always"
       xlink:href="#linearGradient1238"
       id="linearGradient1294"
       x1="161.29631"
       y1="-169.80902"
       x2="127.80065"
       y2="-130.78766"
       gradientUnits="userSpaceOnUse" />
    <linearGradient
       inkscape:collect="always"
       xlink:href="#linearGradient1339"
       id="linearGradient1254"
       x1="129.50604"
       y1="-102.56609"
       x2="127.21379"
       y2="29.465057"
       gradientUnits="userSpaceOnUse" />
    <linearGradient
       inkscape:collect="always"
       xlink:href="#linearGradient1339"
       id="linearGradient1566"
       gradientUnits="userSpaceOnUse"
       x1="181.16864"
       y1="-155.54482"
       x2="108.47308"
       y2="-73.760338" />
    <linearGradient
       inkscape:collect="always"
       xlink:href="#linearGradient1238"
       id="linearGradient1286"
       x1="181.30727"
       y1="-193.35881"
       x2="144.24416"
       y2="-131.35228"
       gradientUnits="userSpaceOnUse"
       gradientTransform="translate(0.80180858,1.3363476)" />
    <linearGradient
       inkscape:collect="always"
       xlink:href="#linearGradient1339"
       id="linearGradient1302"
       x1="164.1833"
       y1="-170.39026"
       x2="167.20033"
       y2="-117.47089"
       gradientUnits="userSpaceOnUse"
       gradientTransform="translate(0.80180858,1.3363476)" />
    <linearGradient
       inkscape:collect="always"
       xlink:href="#linearGradient1339"
       id="linearGradient1270"
       x1="155.77657"
       y1="-168.04012"
       x2="169.901"
       y2="-137.03683"
       gradientUnits="userSpaceOnUse"
       gradientTransform="translate(0,2.1381562)" />
    <linearGradient
       inkscape:collect="always"
       xlink:href="#linearGradient1467"
       id="linearGradient1445"
       x1="-191.10216"
       y1="-328.44751"
       x2="-157.5731"
       y2="-339.03085"
       gradientUnits="userSpaceOnUse" />
    <linearGradient
       inkscape:collect="always"
       id="linearGradient1467">
      <stop
         style="stop-color:#f9f9fb;stop-opacity:1;"
         offset="0"
         id="stop1463" />
      <stop
         style="stop-color:#f8ebeb;stop-opacity:1"
         offset="1"
         id="stop1465" />
    </linearGradient>
    <linearGradient
       inkscape:collect="always"
       xlink:href="#linearGradient1467"
       id="linearGradient1441"
       x1="-137.96205"
       y1="-297.12311"
       x2="-104.6358"
       y2="-285.40585"
       gradientUnits="userSpaceOnUse" />
    <linearGradient
       inkscape:collect="always"
       xlink:href="#linearGradient1467"
       id="linearGradient1439"
       x1="-116.20941"
       y1="-255.63539"
       x2="-79.27076"
       y2="-231.44492"
       gradientUnits="userSpaceOnUse" />
    <linearGradient
       inkscape:collect="always"
       xlink:href="#linearGradient1467"
       id="linearGradient1459"
       x1="-336.81598"
       y1="-233.20274"
       x2="-217.14378"
       y2="-273.64621"
       gradientUnits="userSpaceOnUse" />
    <linearGradient
       inkscape:collect="always"
       xlink:href="#linearGradient1467"
       id="linearGradient1457"
       x1="-322.14053"
       y1="-297.25748"
       x2="-217.14378"
       y2="-273.64621"
       gradientUnits="userSpaceOnUse" />
    <radialGradient
       inkscape:collect="always"
       xlink:href="#linearGradient1429"
       id="radialGradient1423"
       cx="-208.38326"
       cy="-197.52802"
       fx="-208.38326"
       fy="-197.52802"
       r="52.125141"
       gradientTransform="matrix(1.3799014,1.1784815,-1.508879,1.7667685,-218.88077,397.03406)"
       gradientUnits="userSpaceOnUse" />
    <linearGradient
       id="linearGradient1429"
       inkscape:collect="always">
      <stop
         id="stop1425"
         offset="0"
         style="stop-color:#f9f9fb;stop-opacity:1;" />
      <stop
         id="stop1427"
         offset="1"
         style="stop-color:#f8e7d9;stop-opacity:1" />
    </linearGradient>
    <linearGradient
       inkscape:collect="always"
       xlink:href="#linearGradient1467"
       id="linearGradient1461"
       x1="-291.5358"
       y1="-224.51517"
       x2="-124.38155"
       y2="-224.51517"
       gradientUnits="userSpaceOnUse" />
    <linearGradient
       inkscape:collect="always"
       xlink:href="#linearGradient1467"
       id="linearGradient1443"
       x1="-197.22169"
       y1="-289.69867"
       x2="-149.59825"
       y2="-289.69867"
       gradientUnits="userSpaceOnUse" />
    <linearGradient
       inkscape:collect="always"
       xlink:href="#linearGradient1429"
       id="linearGradient1449"
       x1="-232.05066"
       y1="-293.3602"
       x2="-171.26509"
       y2="-293.3602"
       gradientUnits="userSpaceOnUse" />
    <linearGradient
       inkscape:collect="always"
       xlink:href="#linearGradient1467"
       id="linearGradient1447"
       x1="-221.27603"
       y1="-278.48901"
       x2="-184.40204"
       y2="-278.48901"
       gradientUnits="userSpaceOnUse" />
    <linearGradient
       inkscape:collect="always"
       xlink:href="#linearGradient1467"
       id="linearGradient1437"
       x1="-215.02927"
       y1="-257.25876"
       x2="-127.13519"
       y2="-257.25876"
       gradientUnits="userSpaceOnUse" />
    <linearGradient
       inkscape:collect="always"
       xlink:href="#linearGradient1467"
       id="linearGradient1453"
       x1="-218.15871"
       y1="-274.3898"
       x2="-148.94504"
       y2="-274.3898"
       gradientUnits="userSpaceOnUse" />
    <linearGradient
       inkscape:collect="always"
       xlink:href="#linearGradient1467"
       id="linearGradient1451"
       x1="-240.56221"
       y1="-281.16272"
       x2="-176.47028"
       y2="-281.16272"
       gradientUnits="userSpaceOnUse" />
    <linearGradient
       inkscape:collect="always"
       xlink:href="#linearGradient1467"
       id="linearGradient1455"
       x1="-254.40198"
       y1="-284.40308"
       x2="-201.58852"
       y2="-284.40308"
       gradientUnits="userSpaceOnUse" />
  </defs>
  <sodipodi:namedview
     id="base"
     pagecolor="#ffffff"
     bordercolor="#666666"
     borderopacity="1.0"
     inkscape:pageopacity="0.0"
     inkscape:pageshadow="2"
     inkscape:zoom="0.175"
     inkscape:cx="1578.5964"
     inkscape:cy="255.30344"
     inkscape:document-units="mm"
     inkscape:current-layer="layer1"
     showgrid="false"
     fit-margin-top="0"
     fit-margin-left="0"
     fit-margin-right="0"
     fit-margin-bottom="0"
     showborder="false"
     inkscape:window-width="1920"
     inkscape:window-height="1057"
     inkscape:window-x="-8"
     inkscape:window-y="-8"
     inkscape:window-maximized="1"
     showguides="false" />
  <metadata
     id="metadata2128">
    <rdf:RDF>
      <cc:Work
         rdf:about="">
        <dc:format>image/svg+xml</dc:format>
        <dc:type
           rdf:resource="http://purl.org/dc/dcmitype/StillImage" />
        <dc:title></dc:title>
      </cc:Work>
    </rdf:RDF>
  </metadata>
  <g
     inkscape:label="Capa 1"
     inkscape:groupmode="layer"
     id="layer1"
     transform="translate(132.46381,146.11431)">
    <g
       id="g7148">
      <g
         id="g2123"
         style="stroke:#492f2f;stroke-width:0.39687499;stroke-linecap:round;stroke-linejoin:round;stroke-miterlimit:4;stroke-dasharray:none;stroke-opacity:1"
         transform="rotate(-1.6554334,6945.9712,-7381.9561)">
        <g
           transform="rotate(1.6554333,272.32016,-13487.06)"
           id="g1548">
          <path
             style="fill:url(#linearGradient1232);fill-opacity:1;stroke:#194136;stroke-width:0.39687499;stroke-linecap:round;stroke-linejoin:round;stroke-miterlimit:4;stroke-dasharray:none;stroke-opacity:1"
             d="M 134.37692,100.66518 C 103.52486,79.35577 101.81307,36.128582 87.795729,1.5472434 l 23.754871,-69.0551084 26.35854,-18.647269 22.11427,50.681136 c 3.57239,49.1104 -10.44231,90.573545 -25.64649,136.139178 z"
             id="path1216"
             inkscape:connector-curvature="0"
             sodipodi:nodetypes="cccccc" />
          <path
             sodipodi:nodetypes="cccccc"
             inkscape:connector-curvature="0"
             id="path1170"
             d="M 219.6042,101.49181 C 250.30728,79.968304 251.71834,36.730254 265.49479,2.0522466 l -24.23465,-68.8881976 -26.48762,-18.463465 -21.76117,50.833741 c -3.23067,49.134063 11.07208,90.498715 26.59285,135.957485 z"
             style="fill:url(#linearGradient1230);fill-opacity:1;stroke:#194136;stroke-width:0.39687499;stroke-linecap:round;stroke-linejoin:round;stroke-miterlimit:4;stroke-dasharray:none;stroke-opacity:1" />
          <path
             style="fill:url(#linearGradient1246);fill-opacity:1;stroke:#194136;stroke-width:0.39687499;stroke-linecap:round;stroke-linejoin:round;stroke-miterlimit:4;stroke-dasharray:none;stroke-opacity:1"
             d="M 108.11713,-27.311586 C 97.173309,22.163032 92.716529,62.567373 103.20885,115.03465 L 92.363739,109.34167 C 62.148209,77.131696 65.185059,24.030156 70.906969,-7.1175065 c 0.0542,-2.298502 21.66395,-48.9036315 21.66395,-48.9036315 z"
             id="path1218"
             inkscape:connector-curvature="0"
             sodipodi:nodetypes="cccccc" />
          <path
             sodipodi:nodetypes="cccccc"
             inkscape:connector-curvature="0"
             id="path1168"
             d="m 244.97314,-26.664527 c 11.2877,49.397294 16.02543,89.769656 5.89833,142.308637 l 10.80525,-5.76827 c 29.99074,-32.419375 26.58459,-85.498506 20.64614,-116.6056141 -0.0702,-2.298068 -22.0036,-48.7517519 -22.0036,-48.7517519 z"
             style="fill:url(#linearGradient1310);fill-opacity:1;stroke:#194136;stroke-width:0.39687499;stroke-linecap:round;stroke-linejoin:round;stroke-miterlimit:4;stroke-dasharray:none;stroke-opacity:1" />
        </g>
        <g
           transform="rotate(1.6554333,272.32016,-13487.06)"
           id="g1562">
          <path
             sodipodi:nodetypes="ccccccc"
             inkscape:connector-curvature="0"
             id="path1222"
             d="m 165.21392,-162.88701 c 0.1563,6.57984 2.73811,16.55539 -0.26728,18.70887 l -3.20723,24.85607 22.98518,-3.20724 2.93996,-18.17433 c -4.84614,0.9703 -3.28348,-12.4792 -2.67269,-23.78698 z"
             style="fill:url(#linearGradient1415);fill-opacity:1;stroke:#ad7065;stroke-width:0.5291667;stroke-linecap:round;stroke-linejoin:round;stroke-miterlimit:4;stroke-dasharray:none;stroke-opacity:1" />
          <path
             sodipodi:nodetypes="ccccccccccccccccccccccc"
             inkscape:connector-curvature="0"
             id="path1197"
             d="m 223.33251,-52.830394 c 5.52406,33.495447 -7.27937,84.988977 -13.03523,126.047833 -4.0539,16.656138 -1.5203,32.246131 0.89865,46.266751 2.45555,14.22475 5.58544,32.11849 7.57726,43.47994 0.28428,13.36135 8.6755,15.96558 18.97384,23.28884 l -9.82738,9.07143 -12.47322,1.13393 -3.02381,6.04762 -21.16666,0.37798 -8.31548,-5.29167 -15.875,5.29167 c 0,0 -11.71726,-4.53572 -13.98512,-4.15774 -2.26786,0.37797 -10.58333,-9.07143 -10.58333,-9.07143 l 10.58333,-0.75595 7.82547,-22.25367 c 4.70197,-8.85774 3.81525,-15.32379 2.46543,-24.77256 l -1.59745,-11.18211 c -5.86866,-14.11261 -17.21333,-28.19667 -13.31331,-28.96232 8.68751,-2.517146 3.52625,0.85339 10.98061,6.81043 C 156.69375,92.547462 150.65146,73.471219 145.14286,54.717262 133.61165,16.130669 131.37582,-27.347136 132.66965,-61.699403 l 11.71726,-12.851191 z"
             style="fill:url(#linearGradient1347);fill-opacity:1;stroke:#170f0f;stroke-width:0.39687499;stroke-linecap:round;stroke-linejoin:round;stroke-miterlimit:4;stroke-dasharray:none;stroke-opacity:1" />
          <g
             style="stroke:#492f2f;stroke-width:0.39687499;stroke-linecap:round;stroke-linejoin:round;stroke-miterlimit:4;stroke-dasharray:none;stroke-opacity:1"
             transform="translate(387.04762,3.0238095)"
             id="g1214">
            <path
               style="fill:url(#linearGradient1389);fill-opacity:1;stroke:#39492f;stroke-width:0.39687499;stroke-linecap:round;stroke-linejoin:round;stroke-miterlimit:4;stroke-dasharray:none;stroke-opacity:1"
               d="m -186.78673,-93.226345 -35.72393,-55.947695 -15.18267,20.50501 35.65375,51.638675 z"
               id="path1387"
               inkscape:connector-curvature="0" />
            <path
               inkscape:connector-curvature="0"
               id="path1383"
               d="m -235.55517,-95.097232 35.72393,-55.947698 15.18267,20.50501 -35.65375,51.638678 z"
               style="fill:url(#linearGradient1385);fill-opacity:1;stroke:#492f2f;stroke-width:0.39687499;stroke-linecap:round;stroke-linejoin:round;stroke-miterlimit:4;stroke-dasharray:none;stroke-opacity:1" />
            <path
               sodipodi:nodetypes="cccccc"
               style="fill:url(#linearGradient1381);fill-opacity:1;stroke:#39492f;stroke-width:0.39687499;stroke-linecap:round;stroke-linejoin:round;stroke-miterlimit:4;stroke-dasharray:none;stroke-opacity:1"
               d="m -234.27123,-122.73173 25.92514,31.805072 -14.28942,20.43106 -24.32153,-25.925145 10.81492,-22.836487 z"
               id="path1205"
               inkscape:connector-curvature="0" />
            <path
               style="fill:url(#linearGradient1365);fill-opacity:1;stroke:#39492f;stroke-width:0.39687499;stroke-linecap:round;stroke-linejoin:round;stroke-miterlimit:4;stroke-dasharray:none;stroke-opacity:1"
               d="m -223.97186,-73.168295 27.52876,-60.402915 17.90706,18.17433 -28.0633,56.1266 z"
               id="path1203"
               inkscape:connector-curvature="0" />
            <path
               sodipodi:nodetypes="ccccc"
               style="fill:url(#linearGradient1373);fill-opacity:1;stroke:#39492f;stroke-width:0.39687499;stroke-linecap:round;stroke-linejoin:round;stroke-miterlimit:4;stroke-dasharray:none;stroke-opacity:1"
               d="m -250.29398,-66.475431 29.54509,22.985179 8.68233,-21.927228 -30.07963,-25.123332 z"
               id="path1199"
               inkscape:connector-curvature="0" />
            <path
               sodipodi:nodetypes="ccccc"
               style="fill:url(#linearGradient1357);fill-opacity:1;stroke:#39492f;stroke-width:0.39687499;stroke-linecap:round;stroke-linejoin:round;stroke-miterlimit:4;stroke-dasharray:none;stroke-opacity:1"
               d="m -232.75563,-42.810198 12.64501,11.522353 46.9208,-41.037256 -14.63108,-26.279848 z"
               id="path1201"
               inkscape:connector-curvature="0" />
          </g>
          <g
             style="stroke:#492f2f;stroke-width:0.39687499;stroke-linecap:round;stroke-linejoin:round;stroke-miterlimit:4;stroke-dasharray:none;stroke-opacity:1"
             transform="translate(387.04762,3.0238095)"
             id="g1195">
            <path
               style="fill:url(#linearGradient1407);fill-opacity:1;stroke:#ad7065;stroke-width:0.5291667;stroke-linecap:round;stroke-linejoin:round;stroke-miterlimit:4;stroke-dasharray:none;stroke-opacity:1"
               d="m -256.45684,-56.02976 c 5.73918,12.719926 11.77488,25.848238 18.85388,36.787255 2.88577,4.371834 4.73075,7.478519 8.79958,10.1783045 19.15212,12.6748381 8.03562,-12.1573395 6.32254,-13.9160365 8.98296,16.5091134 6.44824,4.191436 1.13693,-1.671946 -0.64518,-1.016291 -1.65308,-1.831467 -2.11304,-2.353244 -1.74953,-1.98467 -2.40713,-1.091624 -3.85906,-2.64268 -12.35585,-9.443324 -16.2016,-32.57384 -24.2268,-46.414392 0,0 -10.38384,-0.162573 -4.91403,20.032739 z"
               id="path1189"
               inkscape:connector-curvature="0"
               sodipodi:nodetypes="cccccsccc" />
            <path
               sodipodi:nodetypes="cccccsccc"
               inkscape:connector-curvature="0"
               id="path1191"
               d="m -177.97077,-54.967715 c -6.97738,12.602573 -14.30507,25.605663 -22.71747,36.365471 -3.42578,4.298144 -5.6287,7.359976 -10.31754,9.9307322 -22.06915,12.0672467 -8.54642,-12.5390332 -6.54691,-14.2479172 -10.78223,16.3007676 -7.42728,3.986318 -1.21118,-1.725601 0.7675,-1.000097 1.93495,-1.784373 2.47384,-2.293136 2.04974,-1.935164 2.7533,-1.011621 4.45046,-2.520896 14.28942,-9.060527 19.56092,-32.218367 29.15647,-45.866196 0,0 11.69161,0.215519 4.71233,20.357543 z"
               style="fill:url(#linearGradient1397);fill-opacity:1;stroke:#ad7065;stroke-width:0.5291667;stroke-linecap:round;stroke-linejoin:round;stroke-miterlimit:4;stroke-dasharray:none;stroke-opacity:1" />
          </g>
        </g>
        <g
           id="g1524"
           inkscape:transform-center-x="-57.399155"
           inkscape:transform-center-y="101.86373"
           transform="rotate(2.8369805,154.36087,-7931.3871)">
          <path
             style="fill:url(#linearGradient1318);fill-opacity:1;stroke:#194136;stroke-width:0.39687499;stroke-linecap:round;stroke-linejoin:round;stroke-miterlimit:4;stroke-dasharray:none;stroke-opacity:1"
             d="m 185.77122,-124.98574 c 37.95385,41.07925 56.18947,92.64897 81.42687,161.874872 3.74113,11.217308 6.42334,17.259101 11.59797,26.731389 -9.79748,-0.24992 -23.62175,-23.135545 -37.02692,-47.957874 -22.2486,-46.957063 -41.76984,-73.131362 -55.32792,-129.930847 -1.51112,-6.48068 -3.40772,-12.03078 -0.67,-10.71754 z"
             id="path1187"
             inkscape:connector-curvature="0"
             sodipodi:nodetypes="cccccc" />
          <path
             sodipodi:nodetypes="cccccc"
             inkscape:connector-curvature="0"
             id="path1149"
             d="m 185.30217,-147.98615 c 36.43901,-14.02432 57.20097,-3.0127 82.54856,14.54983 3.78293,3.21641 6.44178,4.239 11.51311,4.81077 -9.13038,10.26323 -22.61412,10.28835 -35.75926,8.62509 -21.97054,-6.45556 -40.84716,-2.4793 -54.98729,-24.49522 -1.58,-2.55008 -5.8996,-1.42031 -3.31512,-3.49047 z"
             style="fill:url(#linearGradient1320);fill-opacity:1;stroke:#194136;stroke-width:0.39687499;stroke-linecap:round;stroke-linejoin:round;stroke-miterlimit:4;stroke-dasharray:none;stroke-opacity:1" />
          <path
             style="fill:url(#linearGradient1322);fill-opacity:1;stroke:#194136;stroke-width:0.39687499;stroke-linecap:round;stroke-linejoin:round;stroke-miterlimit:4;stroke-dasharray:none;stroke-opacity:1"
             d="m 191.35805,-149.35639 c 72.65548,23.25687 82.03268,69.38247 96.73063,130.863794 1.41244,10.1628389 4.02963,15.2526657 10.83025,22.6744181 -27.06022,5.3652838 -47.1695,-11.8049952 -64.55938,-31.3430081 -24.24261,-38.750999 -57.56559,-56.252773 -49.73333,-110.813174 0.99328,-6.24583 0.16763,-11.24802 6.73183,-11.38203 z"
             id="path1151"
             inkscape:connector-curvature="0"
             sodipodi:nodetypes="cccccc" />
          <path
             sodipodi:nodetypes="cccccc"
             inkscape:connector-curvature="0"
             id="path1153"
             d="m 183.86848,-145.58152 c 27.31038,-12.45743 44.17968,-6.38963 67.2737,1.19589 3.53586,1.48623 5.83542,1.79431 10.01469,1.56181 -5.83098,7.13642 -16.71122,8.6739 -27.57131,9.16877 -18.70255,-1.35947 -33.34339,3.13744 -48.0586,-8.36282 -1.65775,-1.3386 -3.43423,-2.04033 -1.65848,-3.56365 z"
             style="fill:url(#linearGradient1324);fill-opacity:1;stroke:#194136;stroke-width:0.39687499;stroke-linecap:round;stroke-linejoin:round;stroke-miterlimit:4;stroke-dasharray:none;stroke-opacity:1" />
          <path
             style="fill:url(#linearGradient1326);fill-opacity:1;stroke:#492f2f;stroke-width:0.39687499;stroke-linecap:round;stroke-linejoin:round;stroke-miterlimit:4;stroke-dasharray:none;stroke-opacity:1"
             d="m 184.25493,-147.37062 c 40.5446,-3.10114 59.0748,14.09158 84.78397,36.62695 3.78254,3.90134 6.55414,5.52431 11.96643,7.37375 -10.77533,6.877592 -25.30676,3.35709 -39.31913,-1.60054 -23.08446,-11.60843 -43.78759,-12.97467 -57.01381,-36.5903 -1.46963,-2.72017 -3.39131,-4.61781 -0.41746,-5.80986 z"
             id="path1155"
             inkscape:connector-curvature="0"
             sodipodi:nodetypes="cccccc" />
          <path
             style="fill:url(#linearGradient1328);fill-opacity:1;stroke:#194136;stroke-width:0.39687499;stroke-linecap:round;stroke-linejoin:round;stroke-miterlimit:4;stroke-dasharray:none;stroke-opacity:1"
             d="m 183.58046,-147.39883 c 14.76884,5.90616 18.6762,25.40209 24.29866,51.261366 0.73776,4.333312 1.46708,6.393209 3.09286,9.224479 -4.84965,3.893886 -9.4354,-2.403522 -13.61863,-9.886583 -6.36605,-15.433602 -13.45685,-21.111762 -14.5131,-45.265922 -0.10259,-2.77061 -0.49038,-4.89596 0.74021,-5.33334 z"
             id="path1157"
             inkscape:connector-curvature="0"
             sodipodi:nodetypes="cccccc" />
        </g>
        <g
           id="g1542"
           inkscape:transform-center-x="56.118221"
           inkscape:transform-center-y="86.745839"
           transform="rotate(-0.19525656,-2609.1416,112965.92)">
          <path
             style="fill:url(#linearGradient1294);fill-opacity:1;stroke:#194136;stroke-width:0.39687499;stroke-linecap:round;stroke-linejoin:round;stroke-miterlimit:4;stroke-dasharray:none;stroke-opacity:1"
             d="m 163.32863,-148.82675 c -35.63485,-15.95743 -56.30215,-7.82036 -82.554731,8.35818 -3.9499,3.00901 -6.65975,3.88759 -11.75443,4.1867 8.5671,10.7379 22.0301,11.48577 35.245501,10.52954 22.285,-5.26856 40.92133,-0.28615 56.22129,-21.51244 1.81794,-2.06835 8.39612,12.36279 2.84237,-1.56198 z"
             id="path1130-6"
             inkscape:connector-curvature="0"
             sodipodi:nodetypes="cccccc" />
          <path
             sodipodi:nodetypes="cccccc"
             inkscape:connector-curvature="0"
             id="path1132-1"
             d="m 166.30817,-139.60274 c -40.53045,38.53936 -62.06221,88.822129 -91.722671,156.271436 -4.45857,10.951951 -7.5258,16.807681 -13.30204,25.925579 9.79313,0.384068 25.06817,-21.55985 40.050201,-45.4635161 25.2381,-45.4203069 46.41082,-70.2776749 63.61296,-126.0816989 1.92697,-6.36942 4.17845,-11.78528 1.36155,-10.6518 z"
             style="fill:url(#linearGradient1254);fill-opacity:1;stroke:#194136;stroke-width:0.39687499;stroke-linecap:round;stroke-linejoin:round;stroke-miterlimit:4;stroke-dasharray:none;stroke-opacity:1" />
          <path
             sodipodi:nodetypes="cccccc"
             inkscape:connector-curvature="0"
             id="path1128"
             d="m 159.58839,-146.64894 c -74.922446,14.36403 -87.097901,54.486271 -109.072231,113.75778 -2.62259,9.919694 -5.83203,14.658418 -13.47464,21.209844 26.22014,8.5758751 48.24572,-6.055423 67.855911,-23.363868 28.72045,-35.559528 63.90394,-48.933209 62.68003,-104.039316 -0.23611,-6.31991 -1.48845,-6.64318 -7.98907,-7.56444 z"
             style="fill:url(#linearGradient1566);fill-opacity:1;stroke:#194136;stroke-width:0.39687499;stroke-linecap:round;stroke-linejoin:round;stroke-miterlimit:4;stroke-dasharray:none;stroke-opacity:1" />
          <path
             style="fill:url(#linearGradient1286);fill-opacity:1;stroke:#194136;stroke-width:0.39687499;stroke-linecap:round;stroke-linejoin:round;stroke-miterlimit:4;stroke-dasharray:none;stroke-opacity:1"
             d="m 166.08826,-146.75815 c -26.60335,-13.90348 -43.77366,-8.74867 -67.241092,-2.41199 -3.61044,1.29456 -5.9232,1.47894 -10.08402,1.02274 5.44006,7.43871 16.222242,9.55722 27.040192,10.63352 18.74853,-0.35497 33.12728,4.92028 48.43779,-5.77464 1.72713,-1.24781 3.53867,-1.8533 1.84713,-3.46963 z"
             id="path1130"
             inkscape:connector-curvature="0"
             sodipodi:nodetypes="cccccc" />
          <path
             sodipodi:nodetypes="cccccc"
             inkscape:connector-curvature="0"
             id="path1132"
             d="m 165.79826,-148.56539 c -40.32007,-5.27004 -59.74524,10.90466 -86.625432,32.0295 -3.98623,3.69297 -6.84085,5.16504 -12.3445,6.72169 10.39118,7.44531 25.09043,4.70882 39.348402,0.50944 23.67353,-10.35431 44.42014,-10.6088 58.89323,-33.4815 1.61334,-2.63749 3.63398,-4.42938 0.7283,-5.77913 z"
             style="fill:url(#linearGradient1302);fill-opacity:1;stroke:#194136;stroke-width:0.39687499;stroke-linecap:round;stroke-linejoin:round;stroke-miterlimit:4;stroke-dasharray:none;stroke-opacity:1" />
          <path
             sodipodi:nodetypes="cccccc"
             inkscape:connector-curvature="0"
             id="path1159"
             d="m 167.86058,-146.8669 c -15.0642,5.10599 -20.011,24.36444 -27.01156,49.885147 -0.96898,4.287538 -1.80766,6.305374 -3.58288,9.045425 4.63395,4.14825 9.55068,-1.894288 14.12902,-9.142355 7.1842,-15.070157 14.56918,-20.360057 16.91868,-44.422867 0.25096,-2.76113 0.75212,-4.86263 -0.45326,-5.36535 z"
             style="fill:url(#linearGradient1270);fill-opacity:1;stroke:#194136;stroke-width:0.39687499;stroke-linecap:round;stroke-linejoin:round;stroke-miterlimit:4;stroke-dasharray:none;stroke-opacity:1" />
        </g>
        <path
           style="opacity:1;fill:url(#linearGradient1445);fill-opacity:1;stroke:#ad7065;stroke-width:0.5291667;stroke-linecap:round;stroke-linejoin:round;stroke-miterlimit:4;stroke-dasharray:none;stroke-opacity:1"
           d="m -234.70027,-294.1702 c 29.21218,17.80434 31.93355,27.98663 59.68077,11.7451 -24.24175,-12.57121 23.62769,-27.76906 4.82213,-49.48158 -11.96539,-9.69916 -18.63531,-18.9142 -33.75017,-17.25531 -9.71336,-0.31596 -24.38745,2.30336 -31.74935,7.76507 -16.31877,20.33214 -5.23507,31.48982 0.99662,47.22672 z"
           id="path877"
           inkscape:connector-curvature="0"
           sodipodi:nodetypes="cccccc" />
        <path
           sodipodi:nodetypes="ccccccc"
           inkscape:connector-curvature="0"
           id="path879"
           d="m -170.49402,-307.37497 14.49941,-12.21549 c 21.28561,-4.71174 28.72931,0.37909 45.36953,12.27482 12.727266,10.70753 7.66399,15.66149 -0.95634,28.32575 0,0 -12.08381,10.35777 -15.55971,10.60606 -3.47592,0.24832 -49.93202,-8.82511 -49.93202,-8.82511 z"
           style="opacity:1;vector-effect:none;fill:url(#linearGradient1441);fill-opacity:1;stroke:#ad7065;stroke-width:0.5291667;stroke-linecap:round;stroke-linejoin:round;stroke-miterlimit:4;stroke-dasharray:none;stroke-dashoffset:0;stroke-opacity:1" />
        <path
           style="opacity:1;fill:url(#linearGradient1439);fill-opacity:1;stroke:#ad7065;stroke-width:0.5291667;stroke-linecap:round;stroke-linejoin:round;stroke-miterlimit:4;stroke-dasharray:none;stroke-opacity:1"
           d="m -149.40744,-283.80517 c 29.83648,-0.98513 49.822577,4.54604 63.929868,28.79713 14.380275,20.64964 17.944724,21.25361 -6.773944,39.55841 0,0 0.06093,-5.92139 -4.016505,-6.9562 -0.487408,1.74932 -7.245339,8.68493 -8.529659,7.8223 -10.37857,-6.97087 -42.7701,-11.11389 -30.19238,-9.42005 -13.25422,2.23172 -6.91902,-1.69849 -17.68982,-9.44775 -7.51503,-3.93002 -14.51149,-7.59304 -17.75966,-14.90292 l 1.22875,-13.90229 z"
           id="path875"
           inkscape:connector-curvature="0"
           sodipodi:nodetypes="ccccsccccc" />
        <path
           sodipodi:nodetypes="csccccccc"
           inkscape:connector-curvature="0"
           id="path871"
           d="m -318.01685,-260.60504 c -19.93137,10.09246 -16.52446,22.03208 -18.51023,39.6553 -1.19633,10.61696 9.73746,17.1051 15.77535,20.73359 5.97005,5.24473 8.39444,12.41059 19.74702,5.72047 -6.33573,2.83965 -8.56548,5.20161 -10.38838,-6.47123 4.9763,-13.1882 11.97664,-12.24125 20.6684,-16.19094 26.91714,-4.15603 27.69229,-15.26232 35.76355,-39.62866 l 7.00285,-9.85092 c -25.9553,-17.16596 -48.63303,-2.59238 -70.05856,6.03239 z"
           style="opacity:1;fill:url(#linearGradient1459);fill-opacity:1;stroke:#ad7065;stroke-width:0.5291667;stroke-linecap:round;stroke-linejoin:round;stroke-miterlimit:4;stroke-dasharray:none;stroke-opacity:1" />
        <path
           sodipodi:nodetypes="ccccccccc"
           inkscape:connector-curvature="0"
           id="path873"
           d="m -246.58405,-273.57903 c -26.27313,6.9688 -45.13694,6.14349 -62.60831,-12.49318 -16.97793,-15.38526 -17.31294,-17.6014 0.88117,-38.8928 -1.12339,3.58234 0.13299,8.48904 3.96234,8.57436 9.6851,2.25395 17.09999,1.39794 23.79633,-0.55606 11.3048,-4.68769 15.44634,-6.65636 26.58637,-1.98049 7.47098,1.95207 14.4273,3.77316 18.80262,9.59582 l 1.74955,12.58671 z"
           style="opacity:1;fill:url(#linearGradient1457);fill-opacity:1;stroke:#ad7065;stroke-width:0.5291667;stroke-linecap:round;stroke-linejoin:round;stroke-miterlimit:4;stroke-dasharray:none;stroke-opacity:1" />
        <ellipse
           transform="rotate(0.31255096)"
           ry="39.961208"
           rx="51.926704"
           cy="-197.52802"
           cx="-208.38326"
           id="path863"
           style="opacity:1;vector-effect:none;fill:url(#radialGradient1423);fill-opacity:1;stroke:#ad7065;stroke-width:1.5;stroke-linecap:round;stroke-linejoin:round;stroke-miterlimit:4;stroke-dasharray:none;stroke-dashoffset:0;stroke-opacity:1;paint-order:stroke markers fill" />
        <g
           id="g1126"
           style="stroke:#492f2f;stroke-width:0.39687499;stroke-linecap:round;stroke-linejoin:round;stroke-miterlimit:4;stroke-dasharray:none;stroke-opacity:1">
          <ellipse
             style="opacity:1;vector-effect:none;fill:#8e4b4b;fill-opacity:1;stroke:none;stroke-width:0.39687499;stroke-linecap:round;stroke-linejoin:round;stroke-miterlimit:4;stroke-dasharray:none;stroke-dashoffset:0;stroke-opacity:1;paint-order:stroke markers fill"
             id="path1059"
             cx="-241.42706"
             cy="-196.98032"
             rx="4.2763124"
             ry="9.6217022"
             transform="rotate(2.0058641)" />
          <ellipse
             style="opacity:1;vector-effect:none;fill:#8e4b4b;fill-opacity:1;stroke:none;stroke-width:0.39687499;stroke-linecap:round;stroke-linejoin:round;stroke-miterlimit:4;stroke-dasharray:none;stroke-dashoffset:0;stroke-opacity:1;paint-order:stroke markers fill"
             id="path1059-5"
             cx="-194.82622"
             cy="-197.9511"
             rx="4.2763124"
             ry="9.6217022"
             transform="rotate(1.5235993)" />
          <path
             style="fill:none;fill-opacity:1;stroke:#8e4b4b;stroke-width:0.88059914;stroke-linecap:round;stroke-linejoin:round;stroke-miterlimit:4;stroke-dasharray:none;stroke-opacity:1"
             d="m -221.40152,-190.29182 c 2.42074,6.08903 10.90889,7.95378 15.05278,1.02434"
             id="path1076"
             inkscape:connector-curvature="0"
             sodipodi:nodetypes="cc" />
        </g>
        <path
           sodipodi:nodetypes="ccccccccccccccccccc"
           inkscape:connector-curvature="0"
           id="path861"
           d="m -273.37603,-260.75652 c -15.20516,18.08528 -20.06072,31.94409 -17.17135,57.20079 1.45861,8.13297 4.06591,22.06194 16.68859,30.32274 10.36346,6.12805 34.85221,-3.40438 32.90573,-5.70052 -10.19214,6.36893 -18.87062,-5.2966 -18.90006,-14.61416 -0.24669,-10.79243 7.70792,-13.84617 16.64677,-16.31462 19.98757,-5.29201 37.81664,-13.12334 37.06004,-29.28515 l -1.26926,-12.30151 -4.20043,-13.92114 4.20043,13.92114 3.05556,27.81311 c 4.62357,24.67227 22.22904,30.85886 40.94976,32.08378 6.43064,-0.14275 11.5372,0.34871 14.93955,5.92527 4.18755,7.0183 1.24349,15.6481 -5.94082,16.78723 13.06157,-3.29664 22.38705,-11.93812 28.80819,-23.49671 4.55237,-15.95413 -6.58901,-30.56585 -23.07067,-48.36857 -15.90887,-18.32386 -32.85494,-24.06596 -56.51013,-27.83744 l -28.53472,-11.64842 c -14.74779,3.78319 -25.80892,3.04565 -39.65718,19.43418 z"
           style="opacity:1;fill:url(#linearGradient1461);fill-opacity:1;stroke:#ad7065;stroke-width:0.5291667;stroke-linecap:round;stroke-linejoin:round;stroke-miterlimit:4;stroke-dasharray:none;stroke-opacity:1" />
        <path
           sodipodi:nodetypes="cccccc"
           inkscape:connector-curvature="0"
           id="path959"
           d="m -197.02326,-305.45004 c 9.72725,-5.17728 18.2449,-3.63805 26.87134,-0.125 21.13738,1.33297 32.79448,23.47859 -0.59485,33.53074 l -13.99315,1.43559 -9.73652,-16.6843 z"
           style="opacity:1;vector-effect:none;fill:url(#linearGradient1443);fill-opacity:1;stroke:#ad7065;stroke-width:0.5291667;stroke-linecap:round;stroke-linejoin:round;stroke-miterlimit:4;stroke-dasharray:none;stroke-dashoffset:0;stroke-opacity:1" />
        <path
           sodipodi:nodetypes="ccccccccc"
           inkscape:connector-curvature="0"
           id="path952"
           d="m -192.86093,-307.31145 c 15.26301,15.00509 5.87378,1.69517 18.81553,16.35007 l 2.58188,11.73153 -7.57385,2.60454 -23.83689,4.40577 -17.31654,-12.94585 -11.66142,-10.26913 c 2.33095,-13.88088 9.3489,-17.6814 19.32716,-18.57619 9.41558,-1.57099 13.49112,0.62287 19.66413,6.69926 z"
           style="opacity:1;vector-effect:none;fill:url(#linearGradient1449);fill-opacity:1;stroke:#ad7065;stroke-width:0.5291667;stroke-linecap:round;stroke-linejoin:round;stroke-miterlimit:4;stroke-dasharray:none;stroke-dashoffset:0;stroke-opacity:1" />
        <ellipse
           transform="matrix(0.99999041,0.00438047,-0.00679313,0.99997693,0,0)"
           ry="13.961595"
           rx="18.238554"
           cy="-278.48901"
           cx="-202.83904"
           id="path950"
           style="opacity:1;vector-effect:none;fill:url(#linearGradient1447);fill-opacity:1;stroke:#ad7065;stroke-width:0.52916741;stroke-linecap:round;stroke-linejoin:round;stroke-miterlimit:4;stroke-dasharray:none;stroke-dashoffset:0;stroke-opacity:1;paint-order:stroke markers fill" />
        <path
           sodipodi:nodetypes="ccccccccccccc"
           inkscape:connector-curvature="0"
           id="path869"
           d="m -202.31566,-255.43023 c 20.73267,12.74813 49.47267,7.79921 69.97551,10.43216 1.25892,0.18666 2.52084,-0.17611 3.76939,1.91047 7.67713,-18.7336 -22.6756,-27.00436 -26.12772,-26.03429 l -7.35805,-2.30802 -15.51226,2.75025 -7.37764,1.28269 -0.0309,5.66955 -4.91877,0.91811 -15.288,-7.73297 -9.64673,5.51805 3.74673,6.06815 z"
           style="opacity:1;fill:url(#linearGradient1437);fill-opacity:1;stroke:#ad7065;stroke-width:0.5291667;stroke-linecap:round;stroke-linejoin:round;stroke-miterlimit:4;stroke-dasharray:none;stroke-opacity:1" />
        <path
           sodipodi:nodetypes="ccccccc"
           inkscape:connector-curvature="0"
           id="path907"
           d="m -217.96028,-288.2673 c 10.50036,6.82826 28.43129,6.56404 46.10709,10.26664 13.65273,3.10658 14.491,-2.43767 22.70973,-10.91309 -2.05106,7.63337 -5.35851,13.10406 -10.53163,18.72289 -16.44182,3.85754 -7.3155,14.77065 -36.76662,8.33827 l -16.02624,-6.36113 z"
           style="opacity:1;vector-effect:none;fill:url(#linearGradient1453);fill-opacity:1;stroke:#ad7065;stroke-width:0.5291667;stroke-linecap:round;stroke-linejoin:round;stroke-miterlimit:4;stroke-dasharray:none;stroke-dashoffset:0;stroke-opacity:1" />
        <path
           sodipodi:nodetypes="ccccccc"
           inkscape:connector-curvature="0"
           id="path867"
           d="m -238.99449,-302.65513 c 3.56425,2.08221 8.36383,2.46664 14.8917,7.0739 11.91925,11.80344 33.40304,37.06739 47.43459,35.0331 -10.19551,2.23722 -28.50687,-0.2707 -38.16266,-2.4761 l -12.23867,-8.38237 -13.29424,-22.75141 z"
           style="opacity:1;fill:url(#linearGradient1451);fill-opacity:1;stroke:#ad7065;stroke-width:0.5291667;stroke-linecap:round;stroke-linejoin:round;stroke-miterlimit:4;stroke-dasharray:none;stroke-opacity:1" />
        <path
           sodipodi:nodetypes="ccccccc"
           inkscape:connector-curvature="0"
           id="path865"
           d="m -202.31566,-255.43023 c -5.30343,-1.69664 -9.30034,-9.93986 -15.97741,-22.4 -11.11036,-21.19362 -30.45934,-28.37814 -25.66107,-36.89457 -7.37336,1.4889 -9.29432,9.34497 -10.24939,17.04959 1.57169,23.34474 10.09353,32.92902 31.04408,41.59673 9.36574,2.38682 15.49205,2.15297 21.3725,1.72023 z"
           style="opacity:1;fill:url(#linearGradient1455);fill-opacity:1;stroke:#ad7065;stroke-width:0.5291667;stroke-linecap:round;stroke-linejoin:round;stroke-miterlimit:4;stroke-dasharray:none;stroke-opacity:1" />
      </g>
      <rect
         y="-142.53374"
         x="-143.74922"
         height="550.02893"
         width="292.49966"
         id="rect7088"
         style="opacity:1;vector-effect:none;fill:#ffffff;fill-opacity:1;stroke:none;stroke-width:0.99699998;stroke-linecap:round;stroke-linejoin:round;stroke-miterlimit:4;stroke-dasharray:none;stroke-dashoffset:0;stroke-opacity:1;paint-order:stroke markers fill" />
      <text
         id="text7092"
         y="216.5316"
         x="-65.991928"
         style="font-style:normal;font-weight:normal;font-size:214.29260254px;line-height:1.25;font-family:sans-serif;letter-spacing:0px;word-spacing:0px;fill:#000000;fill-opacity:1;stroke:none;stroke-width:5.35731506"
         xml:space="preserve"><tspan
           style="stroke-width:5.35731506"
           y="216.5316"
           x="-65.991928"
           id="tspan7090"
           sodipodi:role="line">3</tspan></text>
    </g>
  </g>
</svg>
