<?xml version="1.0" encoding="UTF-8"?>
<?xml-stylesheet type="text/css" href="../css/style.css" ?>
<svg width="233.7mm" height="233.7mm" version="1.1" viewBox="0 0 233.69632 233.69684" xmlns="http://www.w3.org/2000/svg" xmlns:cc="http://creativecommons.org/ns#" xmlns:dc="http://purl.org/dc/elements/1.1/" xmlns:rdf="http://www.w3.org/1999/02/22-rdf-syntax-ns#">
<script href="https://code.jquery.com/jquery-3.2.1.slim.min.js"/>
<script href="../js/jkl-parsexml.js"/>
<script href="../js/script.js"/>
<metadata>
<rdf:RDF>
<cc:Work rdf:about="">
<dc:format>image/svg+xml</dc:format>
<dc:type rdf:resource="http://purl.org/dc/dcmitype/StillImage"/>
<dc:title/>
</cc:Work>
</rdf:RDF>
</metadata>
<g transform="translate(396.55 118.45)">
<path transform="scale(.26458)" d="m-1057.1-447.68a441.63 441.63 0 0 0 -441.63 441.63 441.63 441.63 0 0 0 441.63 441.63 441.63 441.63 0 0 0 441.63 -441.63 441.63 441.63 0 0 0 -441.63 -441.63zm0 40.01c221.8 2.7e-4 401.63 179.82 401.63 401.62-3.4e-4 221.8-179.83 401.62-401.63 401.62-221.8-3e-4 -401.62-179.83-401.62-401.62-8e-4 -221.8 179.82-401.62 401.62-401.62zm0 1.5859c-220.94 3.4e-4 -400.03 179.09-400.03 400.03 3e-4 220.94 179.09 400.04 400.03 400.04 220.94-3.1e-4 400.04-179.1 400.04-400.04 7.2e-4 -220.94-179.1-400.03-400.04-400.03zm0 35.201c201.48 2.5e-4 364.84 163.35 364.84 364.83-0.00421 201.48-163.36 364.84-364.84 364.84-201.48-2.8e-4 -364.83-163.35-364.83-364.84-8e-4 -201.48 163.35-364.83 364.83-364.83zm0 1.4394c-200.71 2.9e-4 -363.39 162.69-363.39 363.39 3e-4 200.71 162.69 363.4 363.39 363.4 200.71-2.7e-4 363.4-162.69 363.4-363.4 6.8e-4 -200.71-162.69-363.39-363.4-363.39zm-0.043 36.398c180.58 0 326.99 146.41 326.99 327 0 180.58-146.41 327-326.99 327-180.58 0-326.99-146.41-326.99-327 0-180.58 146.41-327 326.99-327zm0 2.0078c-179.5 0-324.98 145.49-324.98 324.99 0 179.5 145.48 324.99 324.98 324.99 179.5 0 324.99-145.49 324.99-324.99-1e-5 -179.5-145.49-324.99-324.99-324.99z" fill="#fff" fill-opacity=".30579" style="paint-order:normal"/>
<path d="m-390.77-2.1399a111.07 111.07 0 0 1 111.52 -110.53 111.07 111.07 0 0 1 110.62 111.44" fill="none" stroke="#000" stroke-linecap="round" stroke-linejoin="round" stroke-width="7" style="paint-order:normal"/>
<path d="m-381.02-1.6012a101.32 101.32 0 0 1 50.921 -87.894 101.32 101.32 0 0 1 101.58 0.45453 101.32 101.32 0 0 1 50.132 88.347" fill="none" stroke="#000" stroke-linecap="round" stroke-linejoin="round" stroke-width="7" style="paint-order:normal"/>
<path d="m-371.32-1.6012a91.613 91.613 0 0 1 45.988 -79.444 91.613 91.613 0 0 1 91.794 0.31375 91.613 91.613 0 0 1 45.444 79.756" fill="none" stroke="#000" stroke-linecap="round" stroke-linejoin="round" stroke-width="7" style="paint-order:normal"/>
<circle cx="-279.7" cy="-1.6012" r="74.923" fill="#fff" style="paint-order:normal"/>
<path d="m-360.97-1.6016a81.257 81.257 0 0 1 40.899 -70.527 81.257 81.257 0 0 1 81.526 0.47008 81.257 81.257 0 0 1 40.083 70.994" fill="none" stroke="#000" stroke-linecap="round" stroke-linejoin="round" stroke-width="7" style="paint-order:normal"/>
</g>
</svg>
